<?xml version="1.0" encoding="utf-8"?>
<!-- Generator: Adobe Illustrator 25.0.0, SVG Export Plug-In . SVG Version: 6.00 Build 0)  -->
<svg version="1.1" id="Capa_1" xmlns="http://www.w3.org/2000/svg" xmlns:xlink="http://www.w3.org/1999/xlink" x="0px" y="0px"
	 viewBox="0 0 400 400" style="enable-background:new 0 0 400 400;" xml:space="preserve">
<style type="text/css">
	.st0{fill:#FFFFFF;stroke:#FFFFFF;stroke-miterlimit:10;}
</style>
<g>
	<path class="st0" d="M200,18.87c-97.91,0-177.27,79.37-177.27,177.27S102.1,373.42,200,373.42s177.27-79.37,177.27-177.27
		S297.91,18.87,200,18.87z M200,359.45c-90.19,0-163.31-73.12-163.31-163.31S109.81,32.83,200,32.83s163.31,73.12,163.31,163.31
		S290.19,359.45,200,359.45z"/>
	<path class="st0" d="M200,156.53c-21.88,0-39.61,17.73-39.61,39.61s17.73,39.61,39.61,39.61s39.61-17.73,39.61-39.61
		S221.88,156.53,200,156.53z M200,232.63c-20.15,0-36.49-16.34-36.49-36.49s16.34-36.49,36.49-36.49s36.49,16.34,36.49,36.49
		S220.15,232.63,200,232.63z"/>
</g>
</svg>
