<?xml version="1.0" encoding="utf-8"?>
<!-- Generator: Adobe Illustrator 25.0.0, SVG Export Plug-In . SVG Version: 6.00 Build 0)  -->
<svg version="1.1" id="Layer_1" xmlns="http://www.w3.org/2000/svg" xmlns:xlink="http://www.w3.org/1999/xlink" x="0px" y="0px"
	 viewBox="0 0 24 24" style="enable-background:new 0 0 24 24;" xml:space="preserve">
<style type="text/css">
	.st0{fill:#FFFFFF;}
</style>
<path class="st0" d="M19.6,6h-2.3l-0.7-2c-0.2-0.7-0.8-1-1.5-1H9C8.3,3,7.7,3.3,7.4,4L6.7,6H4.4C2.9,6,2,7.2,2,8.7v9.8
	C2,20,2.9,21,4.4,21h15.2c1.5,0,2.4-1,2.4-2.5V8.7C22,7.2,21.1,6,19.6,6z M21,18.5c0,0.9-0.5,1.5-1.4,1.5H4.4C3.5,20,3,19.4,3,18.5
	V8.7C3,7.8,3.5,7,4.4,7h2.7c0.2,0,0.4-0.1,0.5-0.3l0.8-2.4C8.5,4.1,8.7,4,9,4h6c0.2,0,0.4,0.1,0.5,0.3l0.8,2.4
	C16.4,6.9,16.7,7,16.9,7h2.7C20.5,7,21,7.8,21,8.7V18.5z"/>
<path class="st0" d="M12,7.7c-3,0-5.4,2.4-5.4,5.4S9,18.5,12,18.5s5.4-2.4,5.4-5.4S15,7.7,12,7.7z M12,17.4c-2.4,0-4.3-1.9-4.3-4.3
	S9.6,8.7,12,8.7s4.3,1.9,4.3,4.3S14.4,17.4,12,17.4z"/>
</svg>
