<?xml version="1.0" encoding="utf-8"?>
<!-- Generator: Adobe Illustrator 25.0.0, SVG Export Plug-In . SVG Version: 6.00 Build 0)  -->
<svg version="1.1" id="Layer_1" xmlns="http://www.w3.org/2000/svg" xmlns:xlink="http://www.w3.org/1999/xlink" x="0px" y="0px"
	 viewBox="0 0 512 512" style="enable-background:new 0 0 512 512;" xml:space="preserve">
<style type="text/css">
	.st0{fill:#FFFFFF;}
</style>
<path class="st0" d="M495.5,428.4L323.2,256L495.5,83.6c18.6-18.6,18.6-48.6,0-67.2c-18.6-18.6-48.6-18.6-67.2,0L256,188.8
	L83.6,16.5C65-2.2,35.1-2.2,16.5,16.5s-18.6,48.6,0,67.2L188.8,256L16.5,428.4c-18.6,18.6-18.6,48.6,0,67.2
	c18.6,18.6,48.6,18.6,67.2,0L256,323.2l172.4,172.4c18.6,18.6,48.6,18.6,67.2,0C514,476.9,514,446.8,495.5,428.4z"/>
</svg>
