<svg id="Capa_1" data-name="Capa 1" xmlns="http://www.w3.org/2000/svg" viewBox="0 0 381.28 267.89"><defs><style>.cls-1,.cls-3{fill:#383838;}.cls-1{stroke:#fff;stroke-miterlimit:10;stroke-width:2px;}.cls-2{fill:#fff;}</style></defs><circle class="cls-1" cx="125.53" cy="182.97" r="112.61" transform="translate(-104.53 73) rotate(-45)"/><path class="cls-2" d="M150,86.54a96.51,96.51,0,0,1,70.88,84.37,100.61,100.61,0,0,0-2.78-14.32,100.6,100.6,0,0,0-68.1-70Z" transform="translate(-11.92 -69.35)"/><path class="cls-2" d="M149.15,91.92a90.93,90.93,0,0,1,66.38,79.5,95,95,0,0,0-41.69-67.81,96.39,96.39,0,0,0-24.69-11.69Z" transform="translate(-11.92 -69.35)"/><path class="cls-2" d="M148.34,97.3A86,86,0,0,1,204.11,147a84.73,84.73,0,0,1,6.12,24.91A89.39,89.39,0,0,0,148.34,97.3Z" transform="translate(-11.92 -69.35)"/><path class="cls-2" d="M147.52,102.68a79.06,79.06,0,0,1,39.44,26,80.36,80.36,0,0,1,16,31.92,84.55,84.55,0,0,1,2,11.81,83.17,83.17,0,0,0-2.31-11.72,81.41,81.41,0,0,0-3.89-11.26,83.19,83.19,0,0,0-12.35-20.28,82.95,82.95,0,0,0-27.79-22A81.12,81.12,0,0,0,147.52,102.68Z" transform="translate(-11.92 -69.35)"/><path class="cls-2" d="M146.71,108.05A77.92,77.92,0,0,1,157.07,112a74.7,74.7,0,0,1,42.55,61,76.67,76.67,0,0,0-2.14-10.84,78.4,78.4,0,0,0-15-29.25,76.71,76.71,0,0,0-16.1-15,79.28,79.28,0,0,0-19.7-9.87Z" transform="translate(-11.92 -69.35)"/><path class="cls-2" d="M145.9,113.43a70.7,70.7,0,0,1,9.5,3.69,68.44,68.44,0,0,1,8.86,5.1,69.15,69.15,0,0,1,15,13.87,69.06,69.06,0,0,1,15.1,37.38,71.8,71.8,0,0,0-2-10,73.5,73.5,0,0,0-13.69-26.95,71.12,71.12,0,0,0-14.71-13.86,73.71,73.71,0,0,0-18-9.26Z" transform="translate(-11.92 -69.35)"/><path class="cls-2" d="M145.08,118.81a62.3,62.3,0,0,1,30.27,21,64.46,64.46,0,0,1,12.19,25A66.76,66.76,0,0,1,189,174a67.12,67.12,0,0,0-1.84-9.11,65.6,65.6,0,0,0-3-8.76,67.71,67.71,0,0,0-9.4-15.89,65.89,65.89,0,0,0-13.33-12.77,63.61,63.61,0,0,0-7.87-4.87A65.11,65.11,0,0,0,145.08,118.81Z" transform="translate(-11.92 -69.35)"/><path class="cls-2" d="M144.27,124.19a57,57,0,0,1,27.21,19.26,60.8,60.8,0,0,1,8.37,14.67,60.13,60.13,0,0,1,2.54,8,62,62,0,0,1,1.32,8.33,65.54,65.54,0,0,0-4.39-16.17,62.61,62.61,0,0,0-8.43-14.42A60.24,60.24,0,0,0,159,132.24a63.2,63.2,0,0,0-14.69-8.05Z" transform="translate(-11.92 -69.35)"/><path class="cls-2" d="M143.46,129.57a50.67,50.67,0,0,1,13.35,7,53.34,53.34,0,0,1,10.79,10.59,54.45,54.45,0,0,1,7.4,13.18A52.45,52.45,0,0,1,178.41,175a60,60,0,0,0-3.94-14.46,56.23,56.23,0,0,0-7.47-13A55,55,0,0,0,156.47,137,57.88,57.88,0,0,0,143.46,129.57Z" transform="translate(-11.92 -69.35)"/><path class="cls-2" d="M142.64,135a44.85,44.85,0,0,1,11.67,6.4,48,48,0,0,1,9.4,9.49,49.14,49.14,0,0,1,6.44,11.71,46.88,46.88,0,0,1,3,13,55.52,55.52,0,0,0-3.49-12.77,51,51,0,0,0-6.51-11.47A50.16,50.16,0,0,0,154,141.8,52.31,52.31,0,0,0,142.64,135Z" transform="translate(-11.92 -69.35)"/><path class="cls-2" d="M141.83,140.33a40.16,40.16,0,0,1,10,5.82,43.87,43.87,0,0,1,8,8.38,44.41,44.41,0,0,1,5.48,10.23A41.76,41.76,0,0,1,167.8,176a50.15,50.15,0,0,0-3-11.07,47.29,47.29,0,0,0-13.32-18.38A47.8,47.8,0,0,0,141.83,140.33Z" transform="translate(-11.92 -69.35)"/><path class="cls-2" d="M141,145.7a39.12,39.12,0,0,1,4.31,2.34,41.48,41.48,0,0,1,3.95,2.92,38.84,38.84,0,0,1,6.63,7.28,38.3,38.3,0,0,1,4.53,8.73,36,36,0,0,1,2.06,9.58,46.29,46.29,0,0,0-2.59-9.37,40.69,40.69,0,0,0-4.61-8.51,41.8,41.8,0,0,0-6.39-7.28A45.88,45.88,0,0,0,141,145.7Z" transform="translate(-11.92 -69.35)"/><path class="cls-2" d="M95.71,276A97,97,0,0,1,31.87,220a95,95,0,0,1-7-28.31A100.59,100.59,0,0,0,95.71,276Z" transform="translate(-11.92 -69.35)"/><path class="cls-2" d="M96.52,270.64a91.44,91.44,0,0,1-64.12-66,94,94,0,0,1-2.26-13.54A95.12,95.12,0,0,0,71.83,259a96.39,96.39,0,0,0,24.69,11.69Z" transform="translate(-11.92 -69.35)"/><path class="cls-2" d="M97.33,265.26a86.62,86.62,0,0,1-12.07-4.39A88.21,88.21,0,0,1,74,254.66a86.57,86.57,0,0,1-32.43-39.13,84.73,84.73,0,0,1-6.12-24.91,89.2,89.2,0,0,0,2.46,12.59,89.74,89.74,0,0,0,36.41,51,89.88,89.88,0,0,0,23,11.08Z" transform="translate(-11.92 -69.35)"/><path class="cls-2" d="M98.15,259.88a79.06,79.06,0,0,1-39.44-26,80.36,80.36,0,0,1-16-31.92,83.08,83.08,0,0,1-1.94-11.81,86,86,0,0,0,6.19,23,83.19,83.19,0,0,0,12.35,20.28,82.32,82.32,0,0,0,17.49,16,81.39,81.39,0,0,0,10.31,6A80.48,80.48,0,0,0,98.15,259.88Z" transform="translate(-11.92 -69.35)"/><path class="cls-2" d="M99,254.51a76.61,76.61,0,0,1-10.36-3.93,74.63,74.63,0,0,1-9.66-5.46,75.6,75.6,0,0,1-27.68-34,73.56,73.56,0,0,1-5.21-21.49,79.91,79.91,0,0,0,5.75,21.27,77.76,77.76,0,0,0,11.36,18.82,76.71,76.71,0,0,0,16.1,14.95A79.28,79.28,0,0,0,99,254.51Z" transform="translate(-11.92 -69.35)"/><path class="cls-2" d="M99.78,249.13a70.83,70.83,0,0,1-9.51-3.69,68.4,68.4,0,0,1-23.82-19,69.06,69.06,0,0,1-15.1-37.38,71.8,71.8,0,0,0,2,10A73.5,73.5,0,0,0,67,226a71.39,71.39,0,0,0,14.71,13.86,69.66,69.66,0,0,0,8.69,5.25A70.91,70.91,0,0,0,99.78,249.13Z" transform="translate(-11.92 -69.35)"/><path class="cls-2" d="M100.59,243.75a62.3,62.3,0,0,1-30.27-21A65.66,65.66,0,0,1,61,206.66a64.72,64.72,0,0,1-2.84-8.89,68.31,68.31,0,0,1-1.48-9.2,67.12,67.12,0,0,0,1.84,9.11,65.6,65.6,0,0,0,3,8.76,67.71,67.71,0,0,0,9.4,15.89A65.89,65.89,0,0,0,84.23,235.1,63.61,63.61,0,0,0,92.1,240,65.11,65.11,0,0,0,100.59,243.75Z" transform="translate(-11.92 -69.35)"/><path class="cls-2" d="M101.4,238.37a57,57,0,0,1-27.21-19.26,59.58,59.58,0,0,1-10.91-22.73A61.56,61.56,0,0,1,62,188.06a60.78,60.78,0,0,0,1.68,8.24,61.76,61.76,0,0,0,2.71,7.93,62.61,62.61,0,0,0,8.43,14.42,60.84,60.84,0,0,0,19,16.18A59.18,59.18,0,0,0,101.4,238.37Z" transform="translate(-11.92 -69.35)"/><path class="cls-2" d="M102.22,233a50.58,50.58,0,0,1-13.36-7,53.34,53.34,0,0,1-10.79-10.59,54.45,54.45,0,0,1-7.4-13.18,52.45,52.45,0,0,1-3.41-14.68A60,60,0,0,0,71.2,202a56.59,56.59,0,0,0,7.47,13,54.73,54.73,0,0,0,10.54,10.58A57.44,57.44,0,0,0,102.22,233Z" transform="translate(-11.92 -69.35)"/><path class="cls-2" d="M103,227.61a45,45,0,0,1-11.67-6.4,48.3,48.3,0,0,1-9.4-9.49A49.14,49.14,0,0,1,75.52,200a46.88,46.88,0,0,1-3-13,55,55,0,0,0,3.5,12.77,52.54,52.54,0,0,0,15.65,21A52.31,52.31,0,0,0,103,227.61Z" transform="translate(-11.92 -69.35)"/><path class="cls-2" d="M103.84,222.23a40.16,40.16,0,0,1-10-5.82,43.64,43.64,0,0,1-8-8.39,44.14,44.14,0,0,1-5.48-10.22,41.76,41.76,0,0,1-2.5-11.28,50.15,50.15,0,0,0,3,11.07,46.55,46.55,0,0,0,5.55,10A45.73,45.73,0,0,0,94.23,216,47.8,47.8,0,0,0,103.84,222.23Z" transform="translate(-11.92 -69.35)"/><path class="cls-2" d="M104.66,216.86a38.37,38.37,0,0,1-4.32-2.34,41.48,41.48,0,0,1-4-2.92,39.18,39.18,0,0,1-6.63-7.28,38.3,38.3,0,0,1-4.53-8.73A36.36,36.36,0,0,1,83.17,186a45.67,45.67,0,0,0,2.6,9.37,40.65,40.65,0,0,0,4.6,8.51,42.17,42.17,0,0,0,6.39,7.28A45.57,45.57,0,0,0,104.66,216.86Z" transform="translate(-11.92 -69.35)"/><path class="cls-2" d="M46.57,118.86a74.73,74.73,0,0,1,5.93-7,90.73,90.73,0,0,1,6.71-6.3A91.66,91.66,0,0,1,66.57,100a74,74,0,0,1,7.93-4.64c-2.58,1.64-5.13,3.32-7.6,5.11s-4.89,3.64-7.21,5.62-4.59,4-6.78,6.13S48.63,116.6,46.57,118.86Z" transform="translate(-11.92 -69.35)"/><path class="cls-2" d="M50.74,122.18a68.59,68.59,0,0,1,5.63-6.66,85.78,85.78,0,0,1,6.37-6,84.89,84.89,0,0,1,7-5.23,70.83,70.83,0,0,1,7.55-4.37c-2.46,1.56-4.88,3.15-7.22,4.85s-4.65,3.45-6.85,5.33-4.36,3.79-6.44,5.8S52.7,120,50.74,122.18Z" transform="translate(-11.92 -69.35)"/><path class="cls-2" d="M54.91,125.5a62.74,62.74,0,0,1,5.32-6.31A72.45,72.45,0,0,1,72.91,108.6a63.37,63.37,0,0,1,7.16-4.1c-2.32,1.47-4.61,3-6.84,4.58s-4.4,3.25-6.48,5-4.14,3.58-6.11,5.48S56.77,123.47,54.91,125.5Z" transform="translate(-11.92 -69.35)"/><path class="cls-2" d="M59.08,128.81a59.17,59.17,0,0,1,5-6,73.64,73.64,0,0,1,5.7-5.33,72.62,72.62,0,0,1,6.28-4.64,58.76,58.76,0,0,1,6.78-3.84c-2.2,1.39-4.36,2.81-6.46,4.32s-4.16,3.06-6.12,4.73-3.91,3.38-5.78,5.16S60.85,126.91,59.08,128.81Z" transform="translate(-11.92 -69.35)"/><path class="cls-2" d="M63.25,132.13A57.08,57.08,0,0,1,68,126.52a68.62,68.62,0,0,1,5.37-5,66.08,66.08,0,0,1,5.92-4.34,52.67,52.67,0,0,1,6.39-3.58c-2.06,1.31-4.1,2.64-6.07,4.05s-3.91,2.88-5.76,4.45-3.68,3.16-5.44,4.83S64.92,130.35,63.25,132.13Z" transform="translate(-11.92 -69.35)"/><path class="cls-2" d="M67.42,135.45a50.33,50.33,0,0,1,4.41-5.26,63.6,63.6,0,0,1,5-4.68,64.55,64.55,0,0,1,5.56-4,48.21,48.21,0,0,1,6-3.32c-1.93,1.23-3.84,2.47-5.69,3.79s-3.67,2.68-5.4,4.15-3.45,2.95-5.11,4.51S69,133.79,67.42,135.45Z" transform="translate(-11.92 -69.35)"/><path class="cls-2" d="M71.59,138.77a45.78,45.78,0,0,1,4.1-4.91,60.49,60.49,0,0,1,4.7-4.36,58.1,58.1,0,0,1,5.2-3.75,44.19,44.19,0,0,1,5.62-3c-1.8,1.15-3.58,2.3-5.3,3.53s-3.43,2.49-5,3.85-3.23,2.74-4.77,4.19S73.07,137.23,71.59,138.77Z" transform="translate(-11.92 -69.35)"/><path class="cls-2" d="M75.76,142.09a39.42,39.42,0,0,1,3.8-4.56,47.51,47.51,0,0,1,4.36-4A45.77,45.77,0,0,1,88.76,130,40.29,40.29,0,0,1,94,127.26c-1.66,1.06-3.31,2.13-4.91,3.26s-3.17,2.31-4.68,3.56-3,2.53-4.44,3.86S77.14,140.67,75.76,142.09Z" transform="translate(-11.92 -69.35)"/><path class="cls-2" d="M79.93,145.4a36.84,36.84,0,0,1,3.49-4.2,43,43,0,0,1,4-3.71,42.38,42.38,0,0,1,4.47-3.16,36,36,0,0,1,4.85-2.52c-1.54,1-3.06,2-4.53,3s-2.93,2.12-4.32,3.26-2.77,2.32-4.1,3.54S81.21,144.11,79.93,145.4Z" transform="translate(-11.92 -69.35)"/><path class="cls-2" d="M84.1,148.72a32.59,32.59,0,0,1,3.19-3.85,38.32,38.32,0,0,1,3.7-3.39,37.69,37.69,0,0,1,4.11-2.86,32.19,32.19,0,0,1,4.46-2.26c-1.4.9-2.79,1.79-4.14,2.74s-2.68,1.93-4,3-2.54,2.11-3.77,3.21S85.29,147.55,84.1,148.72Z" transform="translate(-11.92 -69.35)"/><path class="cls-2" d="M88.27,152a27.69,27.69,0,0,1,2.89-3.5,33.59,33.59,0,0,1,3.36-3.06,34.07,34.07,0,0,1,3.75-2.57,27.52,27.52,0,0,1,4.08-2c-1.27.82-2.54,1.63-3.76,2.48s-2.44,1.74-3.6,2.68S92.68,148,91.56,149,89.36,151,88.27,152Z" transform="translate(-11.92 -69.35)"/><path class="cls-2" d="M92.44,155.36A23.7,23.7,0,0,1,95,152.21a27.07,27.07,0,0,1,3-2.73,27.52,27.52,0,0,1,3.39-2.28,25.23,25.23,0,0,1,3.68-1.74c-1.14.75-2.27,1.46-3.37,2.23s-2.19,1.55-3.24,2.38-2.08,1.68-3.1,2.55S93.44,154.43,92.44,155.36Z" transform="translate(-11.92 -69.35)"/><circle class="cls-2" cx="122.84" cy="181.28" r="24.48" transform="translate(-24.15 -60.43) rotate(-3.96)"/><circle class="cls-3" cx="122.84" cy="181.28" r="12.37" transform="translate(-79.92 219.31) rotate(-85.24)"/><polygon class="cls-2" points="160.17 263.39 153.91 267.89 154.15 260.19 147.94 255.63 155.34 253.47 157.75 246.16 162.09 252.53 169.79 252.57 165.07 258.66 167.42 266 160.17 263.39"/><polygon class="cls-2" points="193.31 260.36 187.06 264.85 187.29 257.15 181.09 252.59 188.48 250.44 190.9 243.13 195.23 249.49 202.94 249.53 198.22 255.62 200.56 262.96 193.31 260.36"/><polygon class="cls-2" points="226.46 257.32 220.21 261.82 220.44 254.12 214.23 249.56 221.63 247.41 224.05 240.09 228.38 246.46 236.08 246.5 231.37 252.59 233.71 259.93 226.46 257.32"/><polygon class="cls-2" points="259.61 254.29 253.35 258.78 253.59 251.08 247.38 246.53 254.78 244.37 257.19 237.06 261.53 243.42 269.23 243.46 264.51 249.55 266.86 256.89 259.61 254.29"/><polygon class="cls-2" points="292.75 251.25 286.5 255.75 286.73 248.05 280.52 243.49 287.92 241.34 290.34 234.02 294.67 240.39 302.38 240.43 297.66 246.52 300 253.86 292.75 251.25"/><polygon class="cls-2" points="325.9 248.22 319.64 252.72 319.88 245.02 313.67 240.46 321.07 238.3 323.49 230.99 327.82 237.36 335.52 237.4 330.81 243.49 333.15 250.82 325.9 248.22"/><path class="cls-3" d="M103,251.1l-6.31.33c-2.49.13-5.12.31-7.2,1.68a9.22,9.22,0,0,0-3.51,5,23.24,23.24,0,0,0-.83,6.17,46.53,46.53,0,0,0,.78,11.43,3.78,3.78,0,0,0,.6,1.53,3.33,3.33,0,0,0,1.21.92,17.56,17.56,0,0,0,7.9,1.48,7.75,7.75,0,0,0,4.24-.81,7.15,7.15,0,0,0,2.68-4,77.65,77.65,0,0,0,2.12-9.2c1.14-5.39,2.94-10.75,2.76-16.26" transform="translate(-11.92 -69.35)"/><path class="cls-2" d="M220.53,177.68l-1.75,9.75-1.73,2.4-2.1,1.31-2,.11-2.41.55-4.07-.1-4.42.65-2.34,1.45L198.3,197l-1.84,9,0,2.12-3,16.53,0,2.22-.54,1.87-.57,4.09-.6,2.18-.31,3.86-1.24,5.37-1.6,3-3.43,1.36-7.56,1-3.46.24L171,249l-1.08-2.11.55-2,1.12-6,.13-2.13,1.51-8.32.57-2.07L176,211.21l.71-2.89.23-2,.49-2.27.26-2.85.78-3.3-.89-1.93-2-.8L165,196l-2.28.43-1.85-.82-.7-1.74.31-3.16,1.09-5.15.23-2,1.74-2.49,2.31-1.24,7.79-.39,3.54-.66,6.57-.36,2.09-.62,2.44,0,2.41-.55,2.12-.11,2.17.18,9.17-1.33h2.1l2.41-.55h2.1l7-.7,1.91,1.11Zm-9.24,6.38.09-1.22-4-.4L205,183l-2.15.31-8,.52-5.57,1-17.62,1.69-2.29.53-.1,1.22,2,.5,4.74-.58,2.3.07,4.71-1.08,2.32,0,2.17.88.84,2.24-.23,2-.54,1.87-.26,2.24-.46,2.06-.12,2-6.59,39.17,0,2.31,1.43.06,1-2.51,2-12.3.55-2v-2l1.54-8.52.57-2.07,2-12.6.07-1.73,1.31-6.48,0-2.22,1.54-2,4-1.41,2.39-.45,3.37-.34,2.08.09,2.75-.58,2.08.1ZM173,246.5l-.77,0-.09.51.64.14Zm12.56-6.41.33-.64.86.11,1.76,0,1.57-2.08-.57-1.25-1.41.55-.49-1.06.67-.68.83.32-.17-.28.74-.48.66-.67-.34-.57-1.3-.17.36-.84,1,.1.62-2.38-.46-1.17-1-.6,1.53-.56.18-1.73-1.29-.17-1,.1-.87.59-1.05.31-.29.44,1.06.9-1.47,2.16.08,1.5,1.18.19-.36.84-1.08.51-.45.75,1.22.59-.32,1.24-.23-.58-1,.8.29.88-1,2-.58,1.47-1.3,1.84-.75,1.19.68.53,1.12-1.42.8-.79.21.69.19,1.49-1.43.65-1.61.36-2-1.1-1.31-.07.64-1.17-1.3-.18.54-1.26.7-1.48-1.35-1.18,1.53-2.57,0-1.71-.61.37-.37,1.54-1.71-.33,1.14-1.52,1.12-1.43.82-.28-.06-1-1.88.7L176,232l-.54.55.33.68-.38.23-.5-.25.36.47,1.36-.24.11.69-.76.59-.7-.44-1.09-.09-.49,1,.55.65.92,1.12-2.55,2.68,2,.8.75.13-1.72.38-.64,1.17-.41,1.15.56,1.25-.17,1,.56-.06.6-.26-.24.73-.26,1.54,2.11.59,1.65,0,1.71-1,.81.43,2.36-.24,2,.39,1.88-1.29.92-.9.75.12.8-2.09v-1.42l-.39-1,.73-.37-.36-.47-.74.48-.8-.52ZM174,239.44l.26.37-.67.07Zm0-4,.62-.36-.09.51Zm2.26-4.86-.7-.43-.62-.24.08.79.83.32.55.05Zm1.56.55,1.6-1-.6-1.05-.85.49-.45,0-1.27-1-1.3,1.14,1.21.08Zm-2-39.52-.64-.14-.07.42Zm-.06,34.48v.6l1.17.89.15-.22,0-1.1Zm1,15.22-.08,1.12-.8.18.17-1Zm-.11,3.95.23,0-.07.41-.44-.06Zm.81-10.07-.48.25-.07.41.67-.07Zm.19-7.68-.47.15.28.27.45,0Zm.67-2.69-.29-.87-.81-.43.06.91.67.63.23.58.51-.35Zm3-6.05.29-1.74.54-1.26-.31-.78-.65,0,0,.4.59.44-1,.81-1-.31-.73-.23-.66.67-.65-.13-.45.75,1.35-.13.25.47-1.21.63.38.36.45.56-.72.38.35.57,1.5-1.06.87-.59Zm-2.95-5.44-.56.66,1.16-.32.45-.65Zm1.29-1.14,1.2-.52,0-.81-1.23.12-1.76.58-.06,1Zm-.9-3.13-.85,1.09.87.11.44-.65,1.22.58,1.86.12.77-1.29-.65-.74-.7-.43.43-1.26-.49-.35-2,1Zm0,17.43-.19.52h.88l.21-.62Zm.35,19.62.68.53-1,.21Zm1.59-25.87-.06-.29-.65.57h-.88l0,.4.82-.29Zm-1.24-38.58.45,0,.31-.54-.35.14Zm.13,22.87.25,1.79,1.1-.61-.55-1.36.64-1.17-.28-.28Zm.68,13,.34.57-.46.14Zm.42-15.67.2.18.45,0-.31-.17ZM181,182l.07.19.45,0,0-.4Zm.18,27.1,0-.4.54,0Zm1.33-15.76-.43-.06-.3.43.57,0Zm.36,7.72.28.28,0-.4-.32-.07Zm1.45-.75.45-.05-.29-.27L184,200Zm-.11,45.27.93-.3.14.49-.84.39Zm2.85-1.2-.47.15.4-1.05.3.17Zm0-63.9,1-.11.11-.61-.81.18-.22,0Zm.64,60.51-.49.24.05-.3Zm1.39-11.54-1.71,1,.89-1.4Zm4.19-9.79.16-1.63-.89-.61-.69-1.15.14-1.52.68-.07.64.14.06.29.08.8.33-.64-.55-.65-.53-.75.42-.55.82-1-.49-.35.26-.23.35-.13-.31-.07-.69.17-1.09-.09.89-.7-.43-.77-.77.69-.33-.07.75-1.79,1.6-2.27-1.15-.39-.15.21.15.39-2,1.21-.59,2.18-.38.94.89.61-1.17,2.34-.17,1.73,1.18.18-.2.53-1.19.52-.36,1.45,1.38,1,.16.39-2.16-.29-.15.22.57,1.25.24,1.19-.32,1.24-.05.91,1.31.78,2-.71.44-.65-.41-1.47.47-1.46.65-1.27Zm-4.93,12.19.55-.66.42.16-.08.51-.41.45Zm.66-5.21-.55,0,.64-.46.62.24Zm.6-6.21.81-.18-.57.76Zm.15-38.92.54.05.19-.43L190,181ZM190.9,218l.14.49-.49.26-.12-.6Zm.25,5.72.14.49-.67.07Zm1.2-10.4-.49.25-.45.05.52-.46Zm-.85,6.34,1.05-.31-.46.75Zm2.63-22.85,0-1.1-.62-.24-.32,1.24Zm-.9,8.66.17.29.3.17.64.14.36-.14-.27-.38-.67.07Zm1.4-2.46.12-.72.37-.84-.55,0-.51,1.06Zm4.92-14.1-.71.27-.38.95.6-.27.34-.74Zm-.12-9.17.18.29.08-.52-.17-.28Zm6-1.41.16.39.65,0-.15-.38Zm7.36-.44-.41-.16-.26.23.32.07Zm3.4,5.4-.29-.27-.4.44Z" transform="translate(-11.92 -69.35)"/><path class="cls-2" d="M260.33,230.3l-.59,1.8-1.54.68-5.08.74-2.81.07-1.49.34-2-.6-1.18-1.18-.68-1.41-.18-1.47-1.51-1.14-2.55-.62-3.85.61-1.68,0-1.47.16-1.91.47-1.67-.06-4.58.61-1.6,0-2.08,1.06-1.62,1.75-1.81,3-1.69,1.68-2,1.05h-2.08l-7.16.82-1.57-.23-.15-1.72,1.51-3.63,1-1.76,1.18-1.46,3.27-6.39,2.93-4.63.82-1.74.94-1.43.75-1.82,1.46-2.31.81-1.66,1.55-2.32,1.75-3.17,1.12-1.61.62-1.47,6.14-11.1,1.12-1.61,4.63-8,.71-1.57,1.77-1.69,2.73-1.14,2.66.44,1.23,1.43.25,1.54.54,1.17.83,3.05,1.17,2.91.78,2.8.21,1.29,1,3,.25,1.54,1.19,2.75.17,1.54.6,1.34.44,1.35.67,1.41.24,1.62.54,1.18.32,1.61.52,1.34.41,1.6.69,1.25.68,3,.6,1.33.33,1.53.93,2.87.25,1.53.63,1.17.24,1.62.85,1.31.34,1.44Zm-15.7-6.37.25-.6-.26-.39-.81.59-.37-.2-.34.12-.35.2-.14-.64-.83.18-.52.22-.55.48.35.86-.3.45-.32-.54-1.31-1.42-.32.53-.4,0-.25-.46-.45-.2-1.18,1-1.83-.61-1.32.23-.61-.18-.14.43.54.1-.79.51-1.55.18.22-.44.66-.08.3-.45-.36-.28-.71.49-.37-.2-1.26.38-1.76,0-1.41.33-1.11.45-.15-.64-1.16.3-1.23.72-.39,1-.48.55-.54-.18-.74.16.34-.7.18-.68-1,0-.61.9-.41.54-.15.51-.64.48v-.57l-1,.44-.31,1,.74.41,0,.91-1.05.12-.76.74-.57.07L213.82,233l.58.92-.27.28-.66-.42-.6-.84-.51.23-.54-.68-.5-.94h-.08l-.29-.21.14-1.5-1.58-.65-.46-.69-.31,1.52-.9,1.26,0,.33-.92.85-.56,1.05,0,.91-.17,0-.06.42.53.19.07-.42.18-.19.55.6-.36.87-.68.24v.49l.7.17.31-.45v-.49l1.2,1.1.71-.5.82.41,1.16-.8.74.41.86-.42.21.22,1.27-.47,1.33-1.39.39-.46.26-.69.47.11.64.51.7-.91-.56,0-.49.64v-.67l.33-1.11.64.51.79-.42-.05-1.32.9-.68.2.31.39,0,.21-.85.41-.63.31.63,1.12-.54,1.43-.5,1.06-.61.11.32,1.54-.09,1.05-.12,2.06-.9,1.56.81.94-.44.32,0,1.06-.12-.17-1.06.43-.21,1.09.78,1.66.14.69-.32,1.72-.28,0,.24.12-.26.15-.43.16,0,.19-.18.24,0,.62.18,1,.45.07-1,.9-.68.14.65-.22.93.39.12.3-.45,1.14-.62Zm-36.91,9.75.5.35-.23.52-.58-.42-.34-.38.26-.2Zm2-3,.3.13-.63,1-1.43,1-.11-.32,1.1-.95Zm.9,2.54.41.45-.27.77-.3-.71-.58-.34.26-.2Zm-.42-5.23.19.88,1.56.24.08-1.09-1.15.22-.56-.51Zm.28,4.58-.1-1h.72l-.18.68-.34.7Zm0-6.51.34-.12-.07.42.22,1.21,1.09-.29,1.41-.9-.25-.47.7-.91.33-1.19.51-.72.59-.73,1.14-.7.74-1.74.65-1.64.38-.95,1.3-1.71.5-1.22-.23-.05.24-1.1.2-.77h.8l-.81-.49-.78.42.27-.78.86.15.86-.42.32,0-.19.19.26-.11-.19-.39.35-.21.05-.33-.38-.62-.41-.45.6-.31-.09-.49-.54-.1-.51.22-.35.21.22.63.35.37-.11.18,0,.24-.78.42-1.08.29.19.31-.4.54-.77.33.39.62-1.14.63-.17,1.17-.5.63-.15.52-1,.85-.13,1.42-.72.49-.17.6-.3.45-.69,1.4-.53,1.38-.07.5-.19.19-.53.31.23.63,1.13-.05-.14.35-.33.12-.49.05-.11.18.56,0-.26.69-.94-.14-.46-.2-.16,0v.58l-.41,0Zm2.33,9.05.19.31-.73.08-.1-.4Zm33.69-14.41,1.85.45,1.24,1.35,1,2.69,1.28,2.66,1.1-.37,0-1.32-1.75-6-.69-1.32-.92-2.95-.24-1.62-.6-1.33-.68-3-.65-1.49L247,207l-.52-1.34-.25-1.54-.6-1.34-.24-1.62L244,198.44l-.09-1.55-3.2-10.2-.81-1.56-1.22.14-3,4.89L233,195.07l-1.12,1.62-3.36,6.4-3.06,5-.71,1.57-1.84,3.17-1.29,1.72L221,216l-5.46,9.78-1.22,1.71-.78,1.49-1.18,3.1.85.15,1.38-1.72,2.39-4.23,1.59-1.5,2-1.14,15-1.56h1.44Zm-32.74,2.67-.54-.68.5-.63.4.53Zm.9,8.48.38.61-.8.59.21-.35-.11-.32Zm.65-10.3-.48,0,.29-.36.41-.05Zm.61-2.47-.23-.05.07-.51.47.12Zm1.3-2.29-.53.31.16-.51.54-.4Zm-.33,14.06.55,0-.38.46Zm2.45-3,.55,0-.32.53-.46-.11ZM246.73,212l1.31,4.63-.36,1.36-2.18,1.16-22.8,2.61-2-.43.15-1.59,3.48-6.66,1.19-1.54,1.94-3.36.62-1.47,2.09-3.29.66-1.73,4-6.64.73-1.65.94-1.51.79-1.5,1.27-1.05.84.81.69,1.33.7,2.8.74,1.49.57,3.15.68,1.32,1.51,4.37.23,1.7.49,1.51.84,1.39.1,1.47Zm-25.32-4.12.77-.33.9.39.5.44.52-.8.24-1.6-.49-1.59-.81.09-.3.36.25,0,.58.43-.12.75-.65.07-.06.42.65-.07-.26.69-.94.35-.58.15Zm.55,17.75.19-.68-.48,0-.1.67Zm20.92-8.74-.4-.53-.3-.13-.47.47-.33,0-.24-.54.12-.27-.44.8-.35-.29-.39.45-.61.9-.52-.85-.07-.57.22-.44.55-.47-.45-.2-.32.53-.41.63-.6,1.3-.66-.91.58-.15.32-.53-.51.22-1.39.74-.87-.64-1.37.07-1.06.12-1.09-.21-.75.26-1.47.17-.24-.56-.53-.76.15-1-.47,0-.16,0,.93-.94-.15-1.63-.65.07.71-.49.72-1.57-.69-.25-.49.06-.92-.23-.32.54.49,1-.71,1,.39.62.25.46-.79-.07-.34-.95-.31-.05,0,.32-.33,1.11.74.42-.73.08-.1.67.91-.19-.3.37-1.37.07-1.12.54-.33,1.11-1.05,2.27.27.87,1,.46,1.29.43,1.74-.36.54-.39.15.06.5-.14.65.5.7-.41,1.81-.86-.23.44,0,.25,1.16-.22,1.65-.35.55-.47.41-.05.7-.41-.06.42.65-.08.36.29.46.11.35-.2.62.18.34-.7.26.38,1,0,.66-.65-.06-.65.32,0,.49.53v.49l0,.33.38-.46-.33-.46,0-.24.66-.16.5-.14.19.31Zm-17.54,2.75.46.11-.7.41-.42-.36ZM225.12,205l-.3.45.05.16.27-.2.14-.34V205l.05-.92-.32-.54-.11.75Zm0,21,0,.24-.28.28,0-.24Zm-.25-23.56,0,.24.36-.29.35.29.65.5-.11-.31-.54-.19-.07-.57Zm.88,14.5.39.61-.35.21-.2-.31-.11-.32-.56-.51.91-.76.13.23,0,.33Zm.42,10.09.15.56-.88-.47Zm-.68-26.56,0,.24.46.69.55,0,.15-1-.06-.07,0,.16-.54.39-.53-.19Zm2.09,14.94.82-.1-.15.43-.82.67Zm1.57,1.8.46-.38-.19.76-1,.36Zm-.32,8.61.4,0-.13.34-.49.06Zm.38-30.48.54-.39.25-.61-.51.23Zm.43.37-.13.34.19.31Zm.72.49-.67.24.07.08.35.28.35-.2Zm-.37-3.42.24.05.43-.21.28.21.32,0-.28-.3.12-.75-.54.39-.31.45Zm.2,13.17.22.14.18-.1.68.25.77-.33-.59-.35-.76.25-.27.2Zm4.5-.68-4.39,8v1.65l1.45.5,6.36-.81,1.49-.83.39-1.53-.35-1.45-.56-1.58-.13-1.31-.68-1.32-.57-3.15-.88-.56-1.18,1Zm-4,20.67.4,0-.14.34-.28-.21Zm.77-35.22.25.46.32,0-.18-.48Zm.42,12.73.07.66.69.16-.14.93.27.87.23-1-.09-1-.37-.7Zm1.31,14.87.42-.13-.31.44-.5.14Zm.79-17.08.34.37,0-.34Zm.77,16.82.43-.22-.22.44-.62.4Zm0-19,.26.38.75-.74-.09-.49-.21.36-.58.15Zm1.61,26.21.63.1-.1.67-.48,0-.61-.18-.57.07,0-.42Zm1.85-26.36-.29.37,0,.25.35-.21Zm-.32-1.61.56,0,.34-.7.13-.35-.15-.06-.14.43-.43.21Zm.7,28,.41,0-.29.28-.17.1Zm1.22-23.73.52-.31.37-.29-.59.15ZM241.38,213l-.91.68-.28.85.58-.15.5-.14-.13-.23-.16-.47.48-.06.47-.47Zm-.7-8.75.85-.35-.11-.31-.62.4Zm.91,4.1-.52.22-.23-.05.35.37.63-.48Zm-.54-.68.66-.16-.08-.48-.5.05Zm.47,4.31.82-.09.3-.94-.5.14-.51.72Zm.53-1.87.52.27.55-.47.57-.07-.15-.06-.41.05-.09-.49-.65.07-.1.68Zm3.42,3.9-.34-1-.12-.81-.68-.25.23-.53-.28-.79-.7.41-.55,1.55-.64,1.06.11.32.24.06.2.22.52.27v-.49l-.61-.27.58-.64.22-1.51.33,0,.35.38.07,1.14.73,1L244,215l.12.23.28.3.51-.22.16-.51.16,0Zm-1.91,2-.18-.39-.41.05.19.39Zm.27-30.21.44-.3,0-.25-.42.12Zm.17,2.62.19.3.18-.1-.25-.47Zm.65,36.38.45.77.31,0,.3-.37-.34.12-.15-.64.14-.92-.23-.06Zm.91,2-.43.21-.39.46.59-.15Zm2.2,4,1.19-.46.49-1.13-.34.12.17-.6.95.06.36.29.25.46.18-.1-.32-.54-.44-.28-.33-1-1-.55.32.54-.69.9-.88-.56-.69-.74-.61.31-.08-.48.48-.55.24,0,0-.17.27-.19-.43.21-.89.6-.11.67.05.24-.2.27.14.15.32,0h.8l-.7,1,0,.41.65-.65-.18.68.53.19.59-.73.4,0,0,.82-1,.69-.13.92.35-.2Zm-1.64-5.09,1-.36.79-1-.94.44Zm0-29.28.56,0,.62-.41h-.72Zm1.06,27.26.13-.84-.76.25-.19.77.23,0,.6.26Zm1-24.45-.44-.28-.78.92-.15,1,.55.6.57.51.82-.67-.31-.62-.05.33-.9-.39.74-.66.46.11-.1-.4.13-.34-.35.2Zm1.16,4-1.36-.5-.39.45-.24,1.6.51-.22.71-1,.16.56-.31.45.33,0,.15.06.08-.58.49-.06.67-.74Zm-2-7.11.24.55.06-.42Zm.47,30.13.24,0-.11-.31-.57.06Zm10.13,4,.2-.35.05-.83h-.64l-.26.11-.57.07-.53-.19,1.08-.78.14-.43-.2-.23h-.56l-.66-.43-.27.2.13.23.33.46-.39.46-.9.68-.85.34-.66-.42-.51-.35-.56.56-.44-.28-.63,1-.85-.15-.36-.29-.5.63.42.94-.84.27-.11-.32-.34.12.22.14.21.22.31.63,1.5-.42,1.18.11-.13-.73-.69-.17.14-.42.78.16.43-.22-.28-.3-.59.23.31-.44.55-.48,1.35.59.77-.34,1.13-.62.2.31-.18.68.59.84.38.12-.11-.32-.86-.64.92-.27.6.26-.26.11.59-.15.27.3Zm-8.74-24.07-.2.27.52.76-.77.92.61.17,1,.13,0-.82.45-.3.23-.52-.19-.3-.25.11-.45-.2Zm.92,2.94-.78-.16.46.69.91.31.34-.61Zm.64,1.58-.45.38-.09,1.08.38.7-.17-.47.36-.79.41.45.54-.39ZM252,214.1l.15,1.14.31,0-.07-.57-.12-.32.19-.18.23-.44-.09-.48Zm.6,4.55.79.07.12-.84.61-.81.21-.35-.53-.19-.7.9Zm1,3.43-.1.67.11.32.66-.65.1-.68.11-.17-.49.05-.35-.37-.6.32Zm-.37-6.15.24.06.38-.46-.35-.28.05.15Zm.76,15.34-.46.39-.14.43.28-.29Zm0-7.59-.26.69.26.38.24-.52.32-.53.44-.3-.6-.26-.79.51Zm.17,4.77,0,.41.35-.21.06-.42Zm.6-1.31-.2-.3-.35.2Zm1.21-1.7.08-.51.28.22.34-.62-.47-.11.19-.68-1.06.12-.59,1.22.62.67-.06.42.14.15.61.76,1-1-.51-.35Zm-.38,6.31-.13-.73-.45-.19-.24-.06.05.24.25.47.38.12Z" transform="translate(-11.92 -69.35)"/><path class="cls-2" d="M327.22,200.88l-.42,1.78-.17,1.68-.5,1.7-.32,3.25-.4,1.62-1.18,10-.49,1.71-1.16,1.86-1.7,1.18-9.76,1-1.69-.47-.55-1.67,2-11.61.22-3.07.33-1.69.14-1.5.49-1.62v-1.66l-.5-.93-1,.28-1.32,1.31-1.27,1.54-7.9,7.92-1.54,1.16-1.87.22-2.35-2-.84-1.31-3.9-3.92-1.65-2.37-1.17-.2-.91,1.26-.4,4.83-1.93,11.36,0,1.73-.18,1.75-.4,1.62-1.1,1.44-2.55,1-9,1.2-1.81-.7-.51-1.43.4-1.61,1.45-11.88.56-1.63,5.28-37,.42-1.78,1.15-1.78L279,172.5l2.26.4,2.1,1.5,1.5,1.72.72,1.07,1,1,.7,1.16.89,1.05,1.2,1.1,1.58,2.3,4.72,5.31.78,1.23,1.14.95.77,1.31.9,1,1.38.34,1.88-.8,14-14.55.92-1.34,5.38-5.48,2.22-2.56,2.21-1.41,2.56-1,1.48.82.66,1.49-.35,1.77-.05,1.41-.42,1.78-3.3,23.71-.47,1.55Zm-53.61,26.75-.39-.62-.48.56-.78.33-.35-.29.22-.44.24-.52-.25.12-.32.53h-.89l-.19-.3.19-.19.17-.1-.23-.06-.23.44-.26.2-.38-.21-.05-.16,0,.25.23,1.13.88.56.19-.18.94.14L273,228l-.27.69-.7.41-.1.67,1-.44Zm-3.39-.35.51.35-.6.24-.18-.4Zm2.34-3.9.68-.82-.76.25-.9.19-.69-.25-.47,1,.29.22.59-.24ZM271,224.63l-.12.26.23.63.61-.89-.79-.08-.38-.12-.06.42Zm1.35-4.2-.78-.15-.74,1.23-.22.94.84-.84Zm-1.27,2.62.49-.05.12.23-.35.2Zm.57-6.49-.4,1,.87-.43.27-1.27-.65-.5-.36.29Zm.64,1.08-.52.8-.28.28.29.13.74-.08-.07,1,.41,0,.33-.12.13.23.45.19,0-.32.58-.15.69-.82-.76.25-.72.49-.23-2.2.66.42.06-.42-.39,0-.15-.07.36-.29-.31,0-.2.28-.29-.22.1.4Zm-.42,4.42.75-.26.28-.77-.69.33Zm1.51-20.88.44.77-.05.92-.37.86.44.29.31,1.11-.54,1,.48.53-.25.6-.68.24,0,.83-.35.7-.5.14.82.4,1.06-.12-.88.51-.63.49,0,.66.1,1-.4,1-.39,0,.07.57.12.31,1.07-1.27.06.65.43-.21.42-.63-.49-1-.57-.52.17-.6.63-.48.31-.45.64-.56.42-.63.06.16.25.46.5-.71-.79-.08-.69.33.18-1.67.32,0,.27.3.43-.71.6-.81-1-.71-.08-1.06.36-.29.7.66.55.1-.17-1-1.05-.46-1.53.1.23-.53.74-.08-.64-.59-.12-.81.54.19.17.48.7.66,1.07.37.38-.46-.28-.79-1-1.12.12-.26-.4.05.05-.34.44-.3.49-.05.13-.35h-.8l-.25.61-.36.28-.15-.64-1,.2-.08,1.08Zm-1.24,25.46.67-.16,1.33-1.38-1.14.13Zm1.26-2.53-.35-.29-.57.06-.05.34.57-.07.43.28.42-.62Zm.11-9.83.67-.74-.22-.14-1,.45-.17,1.18.25-.12.12.32.2.8,1-.11.8-1.08-.14-.64-.9.68ZM278.36,228l1-.28,1.5-1.49-.15-.07-.34.12-.59-.35-.46-.11-.28-.29.69-.82.27-.78.19-.18-.34.12h-.72l-.14-.15-.17.1.2.22.06.74-.66.65-.92.77-.22-.14v.08l-.46.38-.13.35-1.26.39-.82-.4-.31-1.12-.45.87.65,1-.79,1.58v.41l.29-.28.65-.07.1.89.34-.12.23.06,1.18-.38,1.25-1.39Zm-4.6-29.83v.58l.84-.26,1.34-.41.31-1-.44-.28.46-.38,1.65-.27.31-1-.5-.44-.11-.31.58-.15v-.5l-.65.08-.5-.44-.75.17-.5.72-.63,1-.42.13.41,0,.11.31-.86.43-.62.4,1.1.13,1-.2-.74.66-.88,0-.52.23Zm.89,13.34.18-.68-.55-.1-.06.42Zm0-18.31,0,.75.69-.33.11-.76Zm.4-5.41.43.36-.12.26.14.16,0-.42-.1-.4.23-.43Zm.78,4.45.47-.47,0,.41.61.18.61.26.24.55.7-.41-.35-2.52-.54-1.17-.77-.24-.45-.2-.73.58.63.09.61-.32.17.48-.09.59-.6-.26-1.17.87.31.63.31-.53.45-.3.3.13.4-.54.44-.3-.18,2.33-.29.28-.19-.31-.41-.44-.67.15-.59.24v.49Zm35.47,1.56,7.67-7.4,1.87-1.28.16,1-.24,3.25-.52,1.87v1.65l-.41,1.69-.17,1.68-.61,3.53-.06,1.49-1.79,10.43-.34,3.34-.68,3.46.42,1.52h.64l.72-1.65.59-1.8-.05-1.81.25-1.68.51-1.79.06-1.49.44-1.86.17-1.67.41-1.7L321,198l.83-3.4v-1.65l1-5.39V186l.42-1.7.1-1.74.26-1.77-1.21.06L318,184.69l-5.13,5.46-1.17,1.37-1.48,1.32-1.17,1.46-2.69,2.45-4,4.25-1.3,1.22-1.73.86-1.8-.29-.53-1.26-1.1-1.19-1.14-1-1.66-2.28-2.12-1.9-2.29-2.88-1.46-1.48-.78-1.23-1.05-1-1.83-2.19-1.2-1.1-1.41.33-.85,3.56.07,1.64-.47,3.19-.52,1.88-.09,1.65-.49,1.71-.21,3.57-.49,1.62,0,1.82-.32,1.6-.07,1.58-1.26,6.83-.18,1.75-.93,5.14.31,1.69,1-.11.76-1.9.31-1.52.28-3.5.4-1.61.1-1.74.43-1.78L279,211l.08-1.66,1.19-6.9v-1.65l.49-1.71v-1.65l1.34-6.83.49-1.13.91.31,3.28,3.25.77,1.23,1.08.87,5.54,6.87,1.22.94,1.35,1.66,2.39,1.13,1.83-.95L303.6,202l.9-1.18,1.59-1.58,1.56-1.34,2.47-2.58Zm-35.5,34.65-.54.39.44-.79.42-.13Zm.9-.18h.64l-1.12,1.12-.92-.31.69-.33.21-.35Zm3-49.34-.7.4-.32,1-.35.21-.3-1.21-1.26-.1.39,1.11,0,.9.72.5,0,.91-.9-.39-.6.23-.23,1.52.43-.14.18.4-.19.18.36-.29.4,0-.69.82-.75,1.32-.2.77.45-.3.94.14.93-.85.71-.49-.37,1.36-.85.34-.52.31.6.76,1-.45-.49-.44.63-.48.52-.81.83-.75.76-.25v-.49l-.14-.73-.77.91-.83.67-.7-.66-.1.67-.39,0-.41-.45.56-.56.46-.39.39,0-.37-.2,2.89-1.65-.53-.19-1.11.45-.77-.73-.54-.68.44-.3.41.53.65.42.32-.53-.39,0,.13-.34-.32-.54.49-1.13.26-.69.54.68.76.24-.11-.31,0-.67-.68-.25-.41.05-.44-.28-.18.1-.47,0,.29.22-.52.22-.45-.19-.24,0-1,.45.45.2.7-.41.45.19Zm-3.44,17.13-.2-.8.69-.33-.21.36.58-.15.29.21-.77.34Zm.74-10.31.41-.05-1,.69Zm.53,12-.85.35.26.46.57-.06.4-1.12-.94-.63-.19.18Zm.55,26.42-.18-.4-.12.76.71.08Zm.45,1.84.4,0-.44.29-.14.93-.4-.54Zm-.33-42.93.81-.59.1.4-.48.55-.17.6-.45-.2Zm4.39,38.76-.38-.13,0-.32-.33,0-.24-.55-.66-.92.63-.48-.11-.32-1,.11,0-.66-.76.25-.1.67.14.15-.19.19.83-.18,0,.33-1,.44-.78,1-.46.38.67-.24.73-.58.67-.24.86.15-.05.34.33,0,0,.33-.22.43.77.16Zm-2.31-.07-.84.26-.45.88-.32,0,.28.3.53-.89Zm-.94,6.87.47-.55-.25.11-.6.24-.26.69,0,.24.66-.08Zm-.59-53,.61.18.59.35.61-.32-.43-.36-.24,0-.69-.25Zm.86,8.73-.62-.18.25.47.4,0Zm0,42.72-.38.38,0-.33.31-.45Zm.22-50.34-.34.7L280,177l.42-.13Zm3,37-.55-.1-.75-.33-.13-.23-1,.11-.35-.37-.22.43.15.56.31.13-.19.19-.39.46-.2.27.35-.21.31-.45,1.78-.12.93-.35.15-.51L283,213l-.2.27Zm-3-34.88-.2-.23.4-.54.19.31Zm0,43.79,0,.25.67.33.13-.34-.54-.11Zm.74-7.09-.26.11-.14.92,0,.83.88-1.09Zm-.31-7.06-.06.91.73-.08-.15-.56Zm7.42-5.22.27.3-.1-.4,1-.2,1.49-1.41.43-.71.3.13.1.41.3.13,0-.34-.45-.2-.41-.44-.39.46-1.22,1.21-.37-.79-.43-.28-.2-.3.2-.27-.47,0-1.17-.2h-2.08l-.06-.73-.86-.15,1-.37.76.24,1.14-.13,1.22-2.77-.15-.07-.65.57-1,1.18-2.52.78.62-.4.82-.67.84-.26.05-.33.54-.4.37-.86-.74-.41-.7.9-.14-.64.61-.9-.3-.13-1.24-.27-1.16.3-.17.6-1,1.27.93.71,1.73-.85.52.26.43-.21.22-.35.18.39-.74.66-.67.16-.05-.16-.12.26.12.24-.95-.06-1.68,1.1-.13.84.21.72.56.59-.46.38-.4-.53-.4,1,.75.9.21-.84.46.11.26.38-2,2.37.37.2,1.18-.38,1.65-.35,0,.9-.65.65-.07-.07-1,.45-1.31.72.37.79.68-.33,1,.55,1.13-.05-1.85,1.7-1.21.55-.46,1-.31.45.05.24.2.23.18-.11-.17-.47.36-.29.36.29-.13.83.67-.15.14-.93-.25-.46.69.16.23-.43.79-.51-.1-.89.59-.73.3-.45v-.49l.07-.42-.49.06.48-1.05.62-.4.13-.34.64-.57.67-.74.22-.35-.92.27-.37.86-.32,0-.47-.61.55-.47.13-.35.15-.43.62.1.58.42.13-.83h.64l.28.22,0,.25Zm-6.59,23.76-.52.31-.18.68.53-.39ZM282.52,206l1-.19-1-.63-1.25.89,0,.17Zm-.62-25.41-.28-.22-.3.36.52.85.67.34-.17.6-.68.24,0,.73.69-.32,0-.41.67-.74,1.25-.88-.1-.9-.42.63H283l-.74-.41Zm-.5-4.15.1.4.31-.45-.17-.48Zm.36,49.11.08-.5.36-.29-.55,0,0,.82v.5l.14.15.13-.35Zm.46-9.53-.19.27-.26.11.14.15.24,0,.53-.31-.17-.47-.33,0,.31-.45-.12-.32-.29.36Zm.29-38.39.33.95.85.23-.43.22-.47.47.49-.06.38.12.34-.12-.34-.46.14-.34,0-.75-.87-.64ZM283.56,206l.1.4-.55.47.08-.5Zm.34-3.34-.73.58.31-1.52Zm-.34-19.76,0,.41,1.29-.06h.81l.14.14,0-.16-1-.55Zm.39,20.49.33.46-.47.47,0-.41-.17-.48Zm.11-19-.16.51.38-.37.09-.59Zm1.17,16.86,0,.75-.64,0Zm.74-17.32-.81.09.1.4-.39.46.34.37.35-.7,1.3,2,.52.28.69.74-.46.39,1.33,1.33-.2.76,1,.39.34.37.46-.38,0,.41-.29.85.52.27.42-.7-.32-.55-.35-.28-.42.13-.42-.45.83-.18.22-.93-.89-.47-.14-.16.11-.17.27-.2.39-.45L291,187l-.37-.21-.48,0-.19-.31.28-.28.49,0,.46.11-.25-.47-.68-.25-.26-.38-.3.36-.65.08-.45.87.81-.09.37.21-.12.26-.95-.06-.69.33L287.9,186l0-1.32-.35-.29-1,.28-.42-.45,1.51-.42,1.23.36v.58l.62-.4-.56-.52-.32,0,.15-.43-.59-.35h-.72l-.28-.3-.31.45.56,0-.36.29Zm-.86-2.79.7-.41.56-.56-.83.18Zm3.18,21.08-.31.45-.26-.39-1-.12L286,202l.34-.7,1.12,0,.48,0-.07.42.43-.21Zm-2-20.65.06.16.24.55.75-.25Zm1,22.57-.65.07-.24.53H287Zm-.11-4.61-.51.14.28.3.41,0,.3.12Zm2.52,5.08-1.87.21.23.06.84.23.66-.07Zm-1.43-5.94-.31.44.43.86,1.1.12-.55-.59-.05-.74.46-.38-.4-.53-.16-.56-.38-.12-.21.35.48-.06-.5.72Zm1.14-11.44.34,1-.18.1.07.07-.13.35-.35.21-.54-.68Zm-.63,2.64.53-.39.46.19-.53.31ZM293,207.51l-.77-.73-.54-1.26-.08-1.06-.74-.91-1-.05v-.41l-.29.27.1.41.47.6.34.46-.11.18.46.11.31.62-.25.61,1.61,1.55.18-.1Zm-1.7-14.89.25.46.89-.1-.33-.46Zm2.49,13.32.65-.07-.48-.53-.55.48Zm2.24,2.71-.52-.27.39-.45-.21-.72-.13-.23.3-.45-.28-.22-.61.81-.27-.29-.44.3-.81,1.07.15.65.22-.44.24-.52.31.05-.12-.24.43-.21.53.18.29.22-.43.21-.4.54,1.23.36Zm-2.57-18.18.84.24.54-.4-.38-.12-.86-.15Zm1.25,20.07-.08-.57-.38-.12.07.57Zm.51-16.89.33,0,.29.22.23,0-.4-.53ZM297.6,210v-.49l-.48.47-.54-.11-.17.11.42.36Zm-.87-2.7.43-.21-.16-.57-.22-.14,0,.34Zm.29-10h.55l.39.12-.48.47-.32,0,.45.2.94-.36.45-.38-.4,0-1-.31-.38-.12Zm1.42,11.38-.4-.53-.34.12.58.43Zm1.6,2.7-.26.12-.12-.24-.32,0,0,.32.46.2Zm.83-2.32-.27-.38-.54.39-.14.43.26-.11Zm8.34-20.5,0,.33.32,0,.39-.46-.24,0-.27.2Zm3,9.15h-.8l-1,.86v.66l.3.13.46-1Zm-.05.91-.57.56-.25.61Zm.06,24.24.51.36.21-.36-.31,0,.28-.78-.3.37-.51-.36-.56.56.14.15.44-.3Zm-.33-34.27.78.16-.16-.56-.44-.28Zm1.56,11.54,0-.17-.65.08-.58.64-.09.1.16,0h.72Zm.35,23.46-.25,0-.51.22-.37-.2-.2.27.1.4.65-.07Zm-.27-3-.05.34.58-.15-.55-.6-.12.26Zm.88.56-.28-.3-.24.52.25.47Zm-.16-17.22.06.16.43-.22.1.41.25.46-.13.35.28-.28-.12-.24-.27-.87-.25,0Zm.47,2.75-.36.29,0,.32.55-.47.05-.33-.18-.4-.11-.31-.24.52Zm1.76,17.2.56.52,0-.26.56,0,.18-.68-1.35-.09-1.94,1.21,0,.24.68-.24Zm-1.83-.61.65-.08.81-.58.55,0-.5-.36-1.18.38Zm.77-27.72-.38-.12-.18.68.39,0Zm.32,19.84-.23-.06v.5l-.35.2-.19.19.39,0,.23-.44Zm.73-14.52.3-.44-.6-.27-.38.46.11.32.27-.2Zm1.78,24.05-.61-.26-.53-.19,0,.33-.12.26,1,0-.12.26.27-.19Zm-.61-3.48-.13.35.46.11.23-.44Zm1.09-30.89.36-.29-.42.13-.83.76-.12.26Zm.92,33-.45-.2-.46-.11.16.56h.72Zm.66-1.72-.29-.22-.52-.27,0,.25.44.28Zm1.29-2.21-.37-.21-.31,0,0,.26-.63.48-.31,1h.8l.21-.36-.33-.45.44-.3.5-.14Zm-.68-1.91-.48.06-.31.45.81-.1Zm.53-1.38.63-1,.32-.54.07-.5-.55,0,0,.25.45.2-1,.52-.52.8Zm.86,5-.7-.17-.28.78.32,0,0,.25.47-.46Zm-.85-14.17.27.3.65-.08,0-.25-.37-.2-.29-.22Zm.65,4.21-.52.8.27.88-.24.52.57-.64,0-.32.6-.32.1-.68-.52-.26Zm.61-11.62.21.23,0,.17-.14.43.59-.24-.13-.72Zm1.79,12.17-.42.13-.29-.21-.05.33-.19.19-.11.18-.18.19h.08l-.11.17.74.41.29.22,0-.33-.29-.21.13-.35.17,0,.2-.35Zm-1,.53.9-.19-.37.37-.43.22-.3-.13.1-.18Z" transform="translate(-11.92 -69.35)"/><path class="cls-2" d="M147.33,252.15l-1.58,9.6-1.57,2.35-1.91,1.3-1.81.1-2.19.54-3.69-.09-4,.64L128.45,268l-1.29,3.12-1.66,8.81,0,2.09-2.72,16.27,0,2.19-.48,1.84-.53,4-.53,2.14-.29,3.8-1.12,5.28-1.46,2.94-3.11,1.34-6.86.95-3.14.24-2.8-.68-1-2.07.5-2,1-5.86.13-2.1,1.37-8.18.52-2,2-15,.64-2.85.22-2,.44-2.23.24-2.81.7-3.25-.81-1.89-1.78-.8-9.64.86-2.07.43-1.68-.81-.64-1.72.28-3.1,1-5.07.21-2,1.59-2.46,2.09-1.21,7.07-.39,3.2-.65,6-.35,1.9-.61,2.2,0,2.19-.54,1.92-.11,2,.18,8.31-1.31h1.9l2.19-.54h1.91l6.31-.7,1.74,1.1ZM139,258.43l.09-1.21-3.65-.39-2.18.54-2,.31-7.29.51-5,.95-16,1.65-2.08.53-.09,1.2,1.82.5,4.3-.57,2.09.07,4.27-1.07,2.11,0,2,.88.76,2.2-.21,2-.49,1.84-.24,2.2-.42,2-.1,2-6,38.55,0,2.28,1.3.05.88-2.48,1.78-12.09.5-1.94v-2l1.4-8.39.52-2,1.82-12.4.06-1.69,1.19-6.38,0-2.19,1.4-1.94,3.62-1.39,2.17-.44,3.06-.33,1.89.09,2.49-.57,1.89.09Zm-34.77,61.45-.7,0-.08.5-.23-1Zm11.39-6.31.3-.63.78.12,1.6,0,1.42-2-.51-1.24-1.28.54-.44-1,.6-.66.76.31-.17-.28.68-.47.6-.66-.31-.56-1.18-.17.33-.83.89.1.56-2.34-.42-1.15-.91-.59,1.39-.55.16-1.7-1.18-.17-.91.1-.79.58-1,.3-.27.43,1,.89L116,304l.07,1.49,1.07.18-.33.83-1,.5-.41.74,1.11.57-.29,1.23L116,309l-.93.8,1,1.09-.72,1.75v2.47l-2.6.8L112,317l.62.53,1-1.4.72-.77.19.67.18,1.47-1.3.64-5.31,3.26-.87-.93.44-1.5,1.84-2.78-1.18-.17.49-1.25-.86-.44-.68-1.76,2.34-2.94,0-1.69-.56.36-.33,1.53-1.56-.33,1-1.5,1-1.4.74-.28,0-1-1.71.68-1.33-.44-.49.55.3.66-.34.23-.46-.25.33.47,1.24-.24.09.68-.69.58-.64-.43-1-.09-.45.94.5.64.83,1.1-2.31,2.63,1.78.8.68.12-.26,1.39-1.24.17v1.35l-.5,1-.16,1,.51-.05,2-.58v1.56l-1.94,1,1.91.59,1.5,0,1.55-1,.73.41,2-2.29,2,2.45.9-1.88,1.19-1.23h1l.82-1v-1.38l-.35-1,.66-.37-.33-.46-.68.47-.72-.51Zm-10.41-.64.24.37-.61.07Zm0-4,.56-.36-.08.51Zm2-4.79-.64-.43-.56-.23.08.79.75.31.49,0Zm1.42.54,1.44-.95-.54-1-.77.48-.41,0-1.15-1L106,303.41l1.09.08Zm-1.78-38.89-.58-.13-.06.4Zm-.06,33.93v.6l1.06.88L108,301l0-1.09Zm.88,15-.07,1.09-.73.18.16-1Zm-.1,3.88.2,0-.06.41-.39-.06Zm.73-9.91-.43.25-.07.4.07-.4Zm.17-7.55-.42.14.26.27.41,0Zm.62-2.65-.27-.87-.74-.41.07.89.6.62.21.58.46-.35Zm2.72-5.95.27-1.72.49-1.24-.28-.77-.59,0,0,.39.54.44-.93.8-.85-.31-.67-.22-.6.66-.58-.14-.42.75,1.23-.14.22.47-1.09.62.34.36.42.54-.66.38.31.56,1.37-1,.79-.58Zm-2.67-5.36-.5.65,1-.32.4-.64Zm1.18-1.13,1.08-.51,0-.8-1.12.12-1.59.58-.06,1ZM109.5,283l-.77,1.08.79.11.4-.64,1.11.57,1.69.11.69-1.26-.59-.73-.63-.43.39-1.23-.45-.35-1.85,1Zm0,17.16-.18.51h.8l.2-.61Zm.31,19.31.62.53-.93.2ZM111.3,294l-.06-.29-.58.56h-.8l0,.39.75-.28Zm-1.12-38,.41,0,.28-.53-.32.13Zm.11,22.51.23,1.76,1-.61-.49-1.33.58-1.15-.26-.28Zm.61,12.83.32.56-.42.14Zm.39-15.42.18.18.41-.05-.28-.17Zm.13-19.56.08.19.4,0,0-.39Zm.17,26.67,0-.39.49,0Zm1.21-15.51-.39-.06-.27.43.51-.06Zm.32,7.6.26.27,0-.39-.29-.07Zm1.32-.73.41-.05-.26-.27-.41,0Zm-.1,44.54.84-.29.13.49-.76.38Zm2.58-1.17-.42.14.36-1,.28.17Zm0-62.9.91-.1.1-.61-.73.18-.21,0Zm.57,59.56-.44.24.05-.3Zm1.26-11.35-1.55,1,.81-1.38Zm3.8-9.64.15-1.61-.81-.61-.63-1.12.14-1.5.61-.06.58.13,0,.29.08.79.3-.63-.5-.64-.49-.74.39-.54.75-1-.45-.34.24-.23.32-.13-.29-.07-.63.17-1-.09.81-.69-.39-.75-.7.68-.29-.07.67-1.76,1.45-2.24-1-.38-.13.21.14.38-1.79,1.19-.53,2.14-.34.93.8.61L119,288.1l-.16,1.7,1.07.18-.18.51-1.08.52-.32,1.42,1.26,1,.14.38-2-.28-.14.21.51,1.23.23,1.17-.3,1.22,0,.9,1.18.76,1.81-.69.4-.64-.38-1.45.42-1.43.6-1.26Zm-4.46,12,.5-.65.37.16-.08.5-.37.44Zm.59-5.12-.5-.05.58-.46.56.24Zm.55-6.11L120,294l-.52.75Zm.13-38.31.49,0,.17-.41-.48-.14Zm1,35.9.13.48-.44.25L120,292Zm.23,5.63.13.48-.62.06Zm1.09-10.24-.44.25-.41,0,.47-.45Zm-.77,6.24,1-.31-.42.74ZM123.39,271l0-1.09-.56-.23-.29,1.22Zm-.82,8.52.15.28.28.17.58.14.32-.14-.24-.37-.62.07Zm1.27-2.42.11-.7.33-.84-.49,0-.47,1Zm4.46-13.88-.64.27-.35.93.54-.26.32-.73Zm-.1-9,.15.28.08-.5-.16-.29Zm5.42-1.39.14.38.6,0-.14-.39Zm6.68-.44-.38-.15-.24.22.3.07Zm3.08,5.32-.26-.27-.37.44Z" transform="translate(-11.92 -69.35)"/><path class="cls-2" d="M181,302.63l-.54,1.65-1.4.61-4.64.68-2.57.07-1.37.31-1.82-.55-1.08-1.08L167,303l-.17-1.34-1.38-1.05-2.33-.56-3.52.56-1.55,0-1.34.15-1.74.43-1.53-.05-4.18.55-1.47,0-1.9,1-1.48,1.6-1.66,2.75-1.54,1.54-1.83,1h-1.9l-6.55.75-1.44-.21-.13-1.57,1.38-3.33.89-1.61,1.08-1.33,3-5.85,2.68-4.22.75-1.6.85-1.3.69-1.66,1.34-2.12.73-1.51,1.42-2.13,1.6-2.9,1-1.47.57-1.35L153,266l1-1.47,4.23-7.27.65-1.44,1.62-1.54,2.5-1,2.43.4,1.12,1.31.23,1.4.5,1.08.76,2.78,1.06,2.66.72,2.56.19,1.19.9,2.76.23,1.41,1.09,2.51.16,1.42.54,1.22.41,1.23.61,1.29.22,1.49.5,1.07.29,1.47.47,1.23.37,1.47.64,1.13.61,2.72.56,1.22.3,1.4.85,2.62.23,1.4.58,1.07.21,1.48.77,1.2.32,1.32Zm-14.35-5.82.23-.56-.24-.35-.74.54-.34-.19-.31.11-.32.19-.13-.59-.76.16-.47.21-.5.43.32.8-.28.41-.29-.5-1.2-1.3-.29.49-.36,0-.23-.43-.41-.18-1.09.88-1.67-.56-1.2.21-.56-.16-.13.39.5.09-.73.46-1.42.17.21-.4.59-.07.29-.41-.33-.27-.65.46-.34-.19-1.15.36-1.62,0-1.28.3.16.53-.32.65-1.06.28-.86.4-.91.56-1.15-.22-.49-.17-.68.16.32-.64.16-.63-.88,0-.56.82-.37.49.46.86-1.19.88V300l-.93.41-.29.94.68.38,0,.83-1,.11-.69.68-.52.06-1.21,1.72.54.84-.26.26-.6-.39-.55-.76-.47.2-.49-.62-.45-.85h-.08l-.26-.2.13-1.37-1.45-.59-.42-.63-.28,1.39-.83,1.15,0,.3-.85.77-.51,1-.05.83-.15,0-.06.38.49.17.06-.38.17-.17,1.22.11-1,1.23-.62.22v.45l.63.15.28-.41v-.45l.75-.66h1l.58.3,1.12-.11.8,1,.95-.93.37.35.76-1.18,1.28-.13.36-.42.24-.63.42.1.59.47.64-.83-.51,0-.45.58V305l.3-1,.59.46.72-.38-.9-1.09,1.23-1.44h.65l.9-.33-.37.58.37-.58.29.58,1-.5,1.31-.45,1-.56.11.29,1.4-.09,1-.11,1.88-.82,1.42.74.87-.4.28.05,1-.11-.15-1,.4-.19,1,.71,1.51.13.64-.3,1.57-.25,0,.22.11-.24.13-.39.15,0,.17-.17.22,0,.56.16,1,.42.06-.92.82-.62.14.59-.2.85.35.11.28-.41,1-.57Zm-33.75,8.91.46.32-.21.48-.53-.39-.31-.35.24-.17ZM134.8,303l.27.12-.13,2.36-1.75-.56-.1-.29,1.24-1.12Zm.82,2.32.38.41-.25.71-.27-.65-.54-.31.25-.18Zm-.38-4.78.17.81,1.43.21.08-1-1.06.2-.51-.47Zm.25,4.2-.09-.9h.66l-.16.62-.32.64Zm0-6,.31-.11-.06.38.2,1.11,1-.27,1.3-.82-.23-.43.63-.83.31-1.09.47-.65.54-.67,1-.65-.19-1.53,1-2.07.91-1.39,1.07-.53.46-1.11-.21-.05.23-1,.17-.71h.73l-.73-.45-.72.39.25-.71.79.14.79-.4.28.05-.17.17.24-.1-.17-.36.32-.19.05-.31-.36-.56-.38-.41.56-.29-.08-.44-.5-.09-.47.2-.32.19.21.58.31.34-.1.16,0,.22-.71.38-1,.27.17.28-.36.49-.71.31.36.56-1,.57-.16,1.08-.45.58-.14.47-.18,1.52.7,1.4-.75.46-1,.26-.49,1-1.08.1-.48,1.26-.07.46-.18.17-.47.28.2.58,1,0-.12.32-.31.11.43-.43-1,.64,1.35.22-1.08.43-.86-.13-.42-.18-.14,0,.3.73-.68-.16Zm2.13,8.27.18.29-.67.07-.09-.37Zm30.8-13.17,1.7.41,1.13,1.23.88,2.46,1.17,2.43,1-.34,0-1.2-1.6-5.47-.62-1.21-.84-2.7L171,288l-.55-1.22-.62-2.72-.6-1.36-.38-1.39-.47-1.23-.24-1.41-.54-1.22-.22-1.48-1.31-2.49-.08-1.42-2.93-9.32-.74-1.43-1.12.13-2.79,4.47-2.35,4.49-1,1.48L152,277.75l-2.8,4.55-.65,1.43-1.68,2.9-1.19,1.57-.56,1.35-5,8.94L139,300.05l-.71,1.36-1.09,2.84.79.14,1.26-1.58,2.19-3.87,1.44-1.37,1.84-1,13.75-1.42h1.32Zm-29.93,2.44-.49-.62.54-1.36,1.25.84Zm.82,7.75.36.56-.74.54.19-.32-.1-.29Zm.6-9.42-.44,0,.27-.33.37,0Zm.56-2.25-.21-.05.06-.46.43.1Zm1.19-2.1-.48.28.14-.46.49-.36Zm-.31,12.86.51,0-.35.41Zm2.24-2.74h.51l-.29.49-.43-.11Zm25-14.55,1.2,4.24-.33,1.24-2,1.06-20.85,2.38-1.84-.39.14-1.45,3.18-6.1,1.09-1.4,1.77-3.07.57-1.35,1.91-3,.6-1.57,3.69-6.08.67-1.51.86-1.38.71-1.36,1.17-1,.77.75.62,1.2.65,2.57.67,1.36.52,2.88.63,1.21,1.38,4,.2,1.56.46,1.38.76,1.27.09,1.35Zm-23.15-3.77.71-.3,1.29-.16h0l.46.18.22-1.45-.44-1.46-.75.08-.27.34.23,0,.52.39-.1.69-.6.07.66.3.32,0-.68.68-.85.32-.53.14Zm.51,16.24.17-.62-.44,0-.09.61Zm19.12-8-.37-.49-.27-.12-.43.42-.3,0-.22-.51.11-.23-.4.72-.33-.26-.35.41-.56.82-.47-.77-.07-.52.21-.4.5-.44-.41-.18-.29.49-.38.57-.55,1.19-.6-.83.53-.14.29-.49-.47.21-1.27.67-.79-.59-1.25.07-1,.11-1-.18-.69.22-1.34.16-.22-.5-.48-.7.14-.92-.44,0-.15,0,.86-.85-.14-1.5-.6.07.66-.45.65-1.43-.62-.23-.45,0-.85-.21-.29.49.44.93-.64.9.35.56.23.43V288l-1-2-.19.92h0l-.36.35.67.38-.67.07-.09.62.83-.17,0,1.38-1.57-1-1,.49-.3,1,.09,1.41.34.52.75.4,1.83-.25.78.71-.28.2.14.06.46-.13.79-.13.44.22,1.65-.8-.2.41.49-.29.53.32,1.51-.32.5-.44.37,0,.65-.38-.06.39.59-.07.33.26.42.11.32-.19.57.16.31-.64.24.35.87.05.6-.59,0-.6.29,0,.44.47v.45l0,.3.35-.41-.3-.42,0-.22.61-.15.45-.13.18.29Zm-16,2.51.43.1-.64.37-.39-.33Zm-.19-13.4-.28.4.05.15.25-.18.11-.32,0-.07.05-.84-.29-.49-.11.69Zm0,19.22,0,.23-.26.25,0-.22Zm-.22-21.54,0,.23.33-.27.33.27.59.45-.11-.28-.48-.17-.07-.52Zm1.66,13.17-.5.65-.32.19-.18-.28-.11-.29-.51-.47.83-.7.12.21,0,.31Zm-.48,9.32.15.51-.82-.43Zm-.62-24.29,0,.23.42.63h.51l.13-.92-.06-.06,0,.14-.49.36-.49-.17ZM151.08,289l.75-.08-.13.39-.76.61Zm1.44,1.65,1.54.83-1.59.67-2.2-.82Zm-.29,7.87.37,0-.12.32-.45.05Zm.34-27.86.5-.36.23-.55-.47.2Zm.39.33-.12.31.18.29Zm.67.45-.62.22.06.07.33.27.32-.19Zm-.34-3.13.21.05.4-.19.26.19.29.05-.26-.28.11-.69-.49.36-.29.41Zm.18,12.05.2.12.16-.09.62.23.71-.31-.71.31-.52-.39-.25.18Zm4.12-.62-4,7.32v1.51l1.33.45,5.81-.74,1.36-.76.36-1.4-.32-1.32-.52-1.45-.11-1.19-.62-1.21-.53-2.88-.8-.51-1.08.87Zm-3.7,18.89.36,0-.12.32-.26-.2Zm.7-32.2.24.43.28,0-.15-.44Zm.39,11.64.06.6.64.16-.13.84.25.8.21-.93-.09-.9-.34-.63Zm1,13.16.54.31-.17.86-.91-.51Zm.87-15.19.32.35,0-.31Zm.71,15.38.4-.19-.21.4-.57.37Zm0-17.33.24.34.69-.68-.08-.44-.2.32-.53.14Zm1.48,24,.57.08-.09.62-.44,0-.56-.16-.52.06,0-.38Zm1.69-24.1-.27.33,0,.23.32-.19Zm-.29-1.48.51,0,.31-.64.12-.31-.13-.06-.14.39-.39.2Zm.64,25.65.37-.05-.26.26-.16.1Zm1.11-21.7.48-.28.33-.26-.53.13Zm1.52,10.39-.82.62-.26.78.53-.13.46-.13-.12-.22-.15-.43.45-.05.42-.43Zm-.63-8,.78-.32-.11-.29-.56.37Zm.83,3.75-.47.2-.21,0,.68-.15.21.05Zm-.49-.62.61-.15-.09-.44-.44.05Zm.43,3.95.75-.09.27-.86-.46.13-.46.65Zm.48-1.72.47.25-.58-1.13,1.61.63-.14-.06-.37.05-.08-.45-.6.07-.09.61Zm3.12,3.56-.31-.86-.1-.74-.63-.24.22-.47-.26-.73-.64.38-.5,1.41-.59,1,.11.29.21.05.19.21.47.25v-.46l-.55-.23.52-.59.21-1.38.3,0,.31.34.07,1.05.67.91-1,.79.11.21.26.27.47-.2.14-.47.15,0Zm-1.74,1.87-.16-.37-.37.05.16.36Zm.24-27.63.41-.28,0-.23-.39.12Zm.16,2.39.18.28.16-.09-.23-.43Zm.6,33.26.41.71.29,0,.26-.33-.3.11-.14-.59.13-.84-.21-.05Zm.83,1.79-.39.2-.36.42.53-.14Zm2,3.7,1.09-.43.45-1-.31.11.15-.55.87.06.33.26.23.43.16-.1-.29-.49-.4-.26-.3-.94-.88-.51.3.5-.64.82-.8-.51-.63-.68-.56.29-.08-.44.44-.51.22,0,0-.16.24-.17-.39.19-.81.55-.09.61,0,.22-.18.25.13.14.3,0h.73l-.65.91,0,.37.6-.59-.17.62.49.17.54-.67.36,0,0,.75-.9.63-.12.84.32-.19Zm-1.5-4.66.93-.33.72-.91-.86.4Zm0-26.78.51,0,.57-.37h-.66Zm1,24.93.11-.76-.69.22-.18.7.22.05.55.24Zm.92-22.35-.4-.26-.71.84-.14.92.5.55.52.46.75-.61-.28-.57-.05.31-.82-.36.67-.61.43.11-.09-.37.11-.32-.32.19Zm1.06,3.65-1.25-.46-.35.41-.22,1.46.47-.2.65-.91.14.52-.28.4.3,0,.14.06.08-.54.44-.05.62-.67Zm-1.81-6.51.22.51.06-.39Zm.43,27.56.23,0-.11-.29-.52.06Zm9.26,3.69.19-.33,0-.75h-.58l-.24.1-.52.06-.49-.17,1-.72.13-.39-.19-.2-.51,0-.6-.38-.25.18.12.21.3.42-.35.41-.83.63-.77.31-.61-.38-.46-.33-.52.51-.4-.25-.57.89-.78-.13-.33-.27-.45.58.38.86-.77.24-.1-.29-.31.12.2.12.19.2.28.58,1.38-.39,1.08.11-.12-.67-.64-.15.13-.4.71.15.4-.2-.25-.27-.55.21.28-.41L174,302l1.24.54.7-.31,1-.57.17.28-.16.62.54.77.35.11-.1-.29-.79-.59.84-.24.55.23-.24.11.54-.14.25.27Zm-8-22-.18.24.48.7-.71.84.56.16.93.12,0-.75.4-.27.22-.48-.18-.28-.23.1-.41-.18Zm.84,2.69-.71-.15.42.64.84.28.3-.57Zm.59,1.44-.42.35-.07,1,.34.64-.15-.43.33-.72.37.41.49-.36Zm1.08,3,.14,1.05.29,0-.07-.52-.1-.29.17-.17.2-.4-.07-.45ZM174,292l.72.07.11-.76.55-.74.2-.33-.49-.17-.64.83Zm.92,3.14-.09.62.1.29.6-.6.09-.61.1-.16-.45.05-.31-.35-.56.3Zm-.34-5.62.22.06.35-.42-.32-.27.05.15Zm.69,14-.41.35-.13.39L175,304Zm0-6.94-.25.63.25.35.21-.48.3-.48.4-.28-.55-.24-.72.46Zm.15,4.35,0,.38.32-.19.06-.38Zm.55-1.19-.18-.28-.32.19Zm1.11-1.56.06-.46.27.2.3-.56-.42-.11.16-.62-1,.11-.53,1.12.57.61-.06.39.13.13.55.69.95-.93-.46-.33Zm-.35,5.77-.12-.66-.42-.18-.21-.05,0,.22.23.43.35.11Z" transform="translate(-11.92 -69.35)"/><path class="cls-2" d="M242.2,275.73l-.39,1.63-.16,1.53-.45,1.56-.3,3-.36,1.48-1.08,9.17-.45,1.56L238,297.34l-1.55,1.08-8.92.94-1.55-.42-.5-1.53,1.8-10.62.2-2.81.3-1.54.13-1.37.44-1.49v-1.5l-.46-.86-.91.26-1.21,1.19-1.16,1.42-7.22,7.23-1.41,1.07-1.71.19-2.15-1.79-.77-1.19L207.74,282l-1.5-2.17-1.07-.18-.84,1.15-.36,4.42-1.77,10.38,0,1.59-.16,1.6-.37,1.48-1,1.32-2.33.94-8.22,1.09-1.66-.64-.46-1.3.36-1.48,1.33-10.86.52-1.49L195,254.05l.39-1.62,1-1.64,1.62-1,2.07.37,1.92,1.36,1.37,1.58.66,1,.89.88.65,1.06.81,1,1.09,1,1.45,2.09,4.32,4.86.71,1.13,1,.86.7,1.2.82.89,1.27.31,1.72-.73,12.82-13.3.84-1.23,4.92-5,2-2.35,2-1.28,2.34-.95,1.35.75.6,1.37-.31,1.62,0,1.28-.39,1.63-3,21.69-.43,1.41Zm-49,24.46-.36-.56-.44.5-.7.31-.33-.27.21-.4.21-.48-.23.11-.29.48-.81,0-.18-.28.18-.17.16-.1-.22-.05-.2.4-.25.18-.34-.19-.05-.14,0,.23.21,1,.8.51.17-.17.86.13,1.06-.73-.24.64-.64.37-.09.62.94-.41Zm-3.1-.33.47.33-.55.21-.17-.36Zm2.14-3.56.62-.75-.69.23-.83.17-.62-.23-.44,1,.26.19.55-.21Zm-1.41,1.14-.11.24.2.58.56-.82-.72-.06-.35-.11,0,.38Zm1.23-3.83-.71-.15-.69,1.14-.2.85.78-.77ZM190.88,296l.44-.05.12.22-.32.18Zm.52-5.94L191,291l.78-.4.25-1.15-.59-.47-.33.27Zm.58,1-.47.73-.26.26.27.12.67-.08-.06.91.37,0,.31-.11.11.21.42.18,0-.3.53-.13.63-.75-.7.23-.65.45-.21-2,.6.38.06-.38-.36,0-.14-.06.33-.26-.29,0-.18.24-.27-.19.1.36Zm-.38,4,.69-.23.25-.71-.63.3ZM193,276l.41.71-.06.84-.33.79.4.25.28,1-.49.88.44.48-.23.56-.62.22,0,.76-.31.64-.46.12.75.37,1-.11-.8.47-.58.44v.61l.08.89-.36.95-.36,0,.07.52.11.3,1-1.17.06.59.4-.19.37-.57-.44-.93-.52-.47.16-.55.58-.44.27-.41.6-.52.37-.57,0,.14.23.43.47-.65-.72-.07-.64.3.16-1.53.3,0,.25.28.39-.65.55-.74-.93-.65-.07-1L195,278l.64.61.5.09-.15-1-1-.42-1.41.09.22-.48.67-.08-.58-.54-.11-.74.49.17.15.44.65.61,1,.34.35-.42-.25-.73-.95-1,.11-.24-.37,0,0-.3.41-.28.45,0,.12-.31h-.73l-.24.55-.33.26-.13-.58-.9.17-.08,1Zm-1.13,23.28.61-.14,1.21-1.27-1,.12ZM193,297l-.33-.27-.52.06,0,.31.52-.06.4.25.38-.57Zm.09-9,.62-.67-.2-.13-.94.41-.16,1.07.23-.1.11.29.18.73.89-.1.74-1-.14-.58-.82.62Zm4.43,12.54.92-.25,1.37-1.37-.14-.06-.31.11-.53-.31-.43-.1-.25-.28.62-.75.25-.7.18-.17-.31.11h-.66l-.13-.14-.16.09.19.21.05.67-.6.6-.84.7-.2-.13v.08l-.42.35-.12.31-1.15.36-.75-.37-.29-1-.41.8.59.91-.72,1.44V302l.26-.26.6-.07.1.82.31-.11.21.05,1.07-.35,1.14-1.26Zm-4.2-27.27v.53l.77-.24,1.22-.37.29-.93-.4-.26.42-.35,1.5-.25.28-.93-.45-.41-.1-.28.53-.14v-.45l-.59.07-.45-.4-.68.15-.47.65-.57.9-.38.12.37,0,.1.29-.79.39-.57.36,1,.12.91-.18-.68.6-.81,0-.47.2Zm.81,12.2.17-.62-.5-.1-.06.39Zm0-16.74,0,.68.63-.3.11-.69Zm.37-4.95.39.33-.11.24.13.14,0-.38-.09-.36.2-.4Zm.71,4.07.43-.43,0,.38.56.16.55.24.22.5.64-.37-.32-2.31-.49-1.07-.7-.22-.42-.18-.66.53.57.08.56-.29.15.44-.08.53-.55-.23-1.07.8.28.57.29-.49.41-.27.28.12.36-.5.41-.27-.17,2.13-.26.26-.18-.28-.38-.41-.6.14-.54.22v.45Zm32.43,1.42,7-6.76,1.71-1.17.15,1-.22,3-.48,1.71v1.51l-.38,1.55-.16,1.52-.55,3.24-.06,1.36L233,285.68l-.31,3.05-.62,3.16.38,1.39h.59l.66-1.5.54-1.65-.05-1.65.23-1.54.47-1.64L235,284l.4-1.71.16-1.52.37-1.55.62-6.11.76-3.1v-1.51l.88-4.93v-1.43l.38-1.55.09-1.59.24-1.61-1.11.05-4,3.54-4.69,5L228,267.17l-1.35,1.21-1.08,1.33L223.15,272l-3.65,3.89L218.31,277l-1.59.79-1.64-.27-.49-1.15-1-1.09-1.05-.86L211,272.28l-1.93-1.74-2.1-2.62-1.33-1.36-.72-1.13-.95-.94-1.68-2-1.09-1-1.29.3-.78,3.25.07,1.5-.44,2.92-.47,1.71-.08,1.52-.45,1.56-.2,3.26-.44,1.49,0,1.66-.29,1.46-.07,1.45-1.14,6.24-.17,1.6-.85,4.7.28,1.55.9-.1.7-1.74.27-1.39.26-3.2.37-1.48.09-1.59.39-1.63.23-1.53.08-1.52,1.09-6.31v-1.51l.45-1.56v-1.5l1.22-6.25.45-1,.83.29,3,3,.71,1.13,1,.79,5.06,6.28,1.12.86,1.24,1.52,2.19,1,1.66-.87,2.43-2.54.82-1.08,1.46-1.44L224.3,273l2.26-2.37Zm-32.46,31.69-.49.36.4-.73.38-.12Zm.83-.17h.58l-1,1-.83-.28.63-.3.19-.32Zm2.77-45.11-.64.37-.28.94-.32.19-.28-1.1-1.16-.1.36,1,0,.83.66.46,0,.83-.82-.36-.55.22-.2,1.38.38-.12.17.35-.18.18.34-.27.36,0-.63.74-.69,1.22-.18.7.41-.28.86.13.85-.77.65-.45-.33,1.24-.78.31-.48.29.55.69.94-.41-.45-.4.58-.45.47-.73.76-.69.7-.23V261l-.12-.67-.71.84-.75.61-.64-.6-.09.61-.36,0-.38-.41.51-.5.42-.36.36,0-.33-.19,2.63-1.51-.48-.17-1,.42-.7-.67-.49-.63.4-.27.37.49.6.38.29-.49-.36,0,.12-.31-.29-.5.45-1,.24-.63.49.62.7.22-.1-.29v-.6l-.62-.23-.37,0-.4-.26-.16.1-.44,0,.26.2-.47.2-.41-.18-.22,0-.94.41.41.18.64-.38.42.18Zm-3.14,15.66-.18-.73.63-.3-.2.33.54-.14.26.2-.71.3Zm.68-9.43.37,0-.9.63Zm.48,11-.77.32.23.42.52-.06.37-1-.87-.58-.17.17Zm.5,24.15-.16-.36-.11.69.65.08Zm.41,1.69.37,0-.4.27-.13.85-.37-.49Zm-.29-39.26.74-.53.09.36-.44.5-.16.55-.41-.18Zm4,35.44-.34-.11,0-.3-.3,0-.22-.51-.61-.83.58-.45-.1-.29-.89.11v-.61l-.69.23-.09.62.13.13-.18.17.76-.16,0,.3-.94.41-.72.91-.42.35.62-.22.66-.53.62-.22.78.13,0,.31.3,0,0,.3-.21.39.71.15Zm-2.11-.06-.76.24-.42.8-.28,0,.25.27.48-.81Zm-.86,6.28.44-.5-.24.1-.54.22-.24.63,0,.22.6-.07Zm-.54-48.42.56.16.54.31.56-.29-.39-.33-.23,0-.62-.24Zm.79,8-.56-.16.23.43.36,0Zm0,39.06-.34.34,0-.29.28-.41Zm.2-46-.31.64.43-.43.38-.12Zm2.79,33.84-.5-.09-.69-.3-.11-.21-.9.1-.31-.34-.21.4.15.51.27.12-.17.17-.36.42-.18.24.32-.18.28-.41,1.63-.11.85-.32.14-.48-.19-.2-.18.25ZM199,255.63l-.19-.2.37-.5.17.28Zm0,40,0,.23.61.3.12-.31-.5-.1Zm.67-6.49-.23.11-.13.84,0,.76.81-1Zm-.28-6.45-.05.84.67-.08-.14-.51Zm6.78-4.77.26.27-.09-.36.9-.18,1.36-1.29.39-.65.28.12.09.37.27.12,0-.31-.41-.18-.38-.41-.35.42L207.47,277l-.33-.72-.4-.25-.18-.28.18-.25-.43,0-1.08-.18h-1.9l0-.67-.79-.14.93-.33.7.22,1-.12,1.11-2.54-.14-.06-.58.52-.9,1.09-2.3.71.57-.36.75-.62.76-.24.05-.3.49-.36.34-.79-.68-.38-.63.83-.13-.59.56-.82-.28-.12L203,270l-1.07.28-.15.54-.9,1.16.85.66,1.58-.79.47.25.4-.2.19-.32.17.36-.68.6-.6.15-.06-.15-.1.24.11.21-.87-.05-1.54,1-.11.77.19.65.51.55-.42.35-.37-.49-.36.95.68.83.19-.78.42.1.24.35L200,279.34l.34.19,1.07-.35,1.51-.32,0,.83-.6.59-.07-.06-.94.4-1.19.67.33.72.63-.3.88.5,1,0-1.7,1.55-1.1.5-.42.88-.28.41,0,.22.19.21.16-.1-.16-.43.34-.27.32.27-.11.77.6-.15.13-.84-.23-.43.64.15.2-.4.73-.46-.1-.82.54-.66.28-.41v-.45l0-.38-.44.05.43-1,.57-.37.12-.31.59-.52.61-.67.2-.33-.85.25-.33.79-.29,0-.43-.56.5-.43.12-.31.14-.4.57.09.52.39.12-.77h.58l.27.2,0,.23Zm-6,21.73-.49.28-.16.62.49-.36Zm1.11-19.29.91-.18-.94-.56-1.15.8,0,.16Zm-.55-23.23-.27-.2-.27.33.47.78.61.3-.15.55-.62.22.05.67.63-.29,0-.38.61-.67,1.15-.81-.1-.82-.38.57h-.73l-.68-.37Zm-.47-3.8.1.37.28-.41-.16-.44Zm.34,44.91.06-.46.33-.26-.5,0,0,.75v.45l.12.14.12-.32Zm.42-8.72-.19.25-.23.1.13.14.22,0,.48-.28-.16-.44-.29,0,.28-.41-.11-.29-.26.33Zm.25-35.1.31.87.78.22-.4.19-.43.43.45-.05.35.11.31-.11-.31-.42.12-.32,0-.68-.79-.59Zm1,25.91.09.37-.5.43.07-.46Zm.31-3.05-.67.53.28-1.39Zm-.31-18.07,0,.38,1.18-.06h.73l.13.14,0-.16-.87-.5Zm.35,18.74.31.42-.43.43,0-.38-.15-.43Zm.11-17.36-.15.47.34-.34.08-.53Zm1.06,15.42,0,.68h-.58Zm.68-15.84-.74.08.09.37-.36.42.32.34.31-.64,1.2,1.83.47.24.63.68-.42.35,1.21,1.22-.18.7.9.35.32.34.42-.35v.38l-.26.78.48.25.39-.65-.3-.49-.32-.27-.39.12-.38-.41.76-.16.2-.85-.81-.44-.13-.13.1-.17.25-.17.35-.42.44-.5-.34-.19-.43,0-.18-.28.26-.25.44-.05.43.1-.23-.43-.63-.23-.24-.35-.27.33-.59.07-.41.81.74-.09.34.19-.11.23-.87,0-.63.3-.08-1,0-1.2-.33-.27-.92.26-.38-.41,1.38-.39,1.12.33V261l.56-.37-.51-.47-.29,0,.13-.39-.53-.32h-.66l-.26-.27-.28.41.51,0-.33.26Zm-.79-2.55.64-.38.52-.51-.76.17Zm2.91,19.28-.28.41-.24-.35-.94-.12-.63-.16.31-.64,1,0,.43,0-.05.39.4-.2Zm-1.8-18.88,0,.15.22.5.69-.23Zm.95,20.63-.59.07-.22.48h.51Zm-.1-4.21-.46.13.25.27.37,0,.28.12Zm2.31,4.64-1.72.19.21.05.78.22.59-.07Zm-1.32-5.43-.28.41.4.78,1,.11-.51-.54,0-.68.41-.35-.36-.48-.15-.51-.35-.11-.19.32.44-.05-.46.65Zm1.05-10.45.31.86-.16.1.06.07-.12.31-.32.19-.49-.62Zm-.58,2.4.49-.36.42.18-.49.28Zm3.81,16.16-.7-.68-.49-1.15-.07-1-.68-.83-.88-.05v-.37l-.26.25.09.37.43.55.3.42-.09.16.42.1.28.58-.23.55,1.47,1.42.17-.1Zm-1.55-13.63.23.43.82-.1-.31-.41Zm2.28,12.19.6-.07-.45-.48-.5.44Zm2,2.48-.48-.25.36-.42-.2-.65-.12-.22.29-.41-.27-.19-.55.74-.25-.27-.41.27-.73,1,.13.59.21-.4.22-.48.28,0-.11-.21.39-.2.49.17.26.2-.39.19-.37.5,1.13.32Zm-2.36-16.63.78.22.49-.36-.35-.11-.78-.14Zm1.15,18.35-.07-.52-.35-.11.07.52Zm.47-15.44.3,0,.26.2.21.05-.36-.48Zm2.15,15v-.46l-.43.43-.5-.09-.16.09.39.33Zm-.8-2.47.4-.2-.15-.51-.2-.13,0,.31Zm.27-9.16.51,0,.35.11L215,273l-.3,0,.41.18.86-.33.41-.35-.36.05-.92-.28-.35-.11Zm1.3,10.41-.36-.49-.31.11.52.39Zm1.46,2.47-.23.1-.12-.21-.28,0,0,.3.41.17Zm.76-2.12-.24-.35-.49.36-.14.39.24-.1Zm7.62-18.75,0,.3.3,0,.35-.42-.22,0-.25.18Zm2.71,8.37h-.73l-.93.78v.6l.27.12.42-.87Zm-.05.83-.52.52-.23.55Zm.06,22.17.46.32.2-.32-.29-.05.25-.7-.27.33-.46-.32-.51.51.12.13.41-.27Zm-.3-31.34.71.14-.15-.51-.4-.25Zm1.42,10.55-.05-.15-.59.07-.53.59-.09.08.15,0h.66Zm.32,21.45-.23,0-.47.2-.33-.19-.19.25.09.37.6-.07Zm-.25-2.76,0,.31.54-.14-.51-.54-.11.23Zm.8.51-.25-.27-.22.48.23.42Zm-.14-15.74.05.14.4-.19.09.36.23.43-.12.32.26-.26-.12-.21-.24-.81-.23,0Zm.43,2.51-.33.27,0,.29.5-.43.05-.31-.17-.36-.1-.28-.22.47Zm1.61,15.73.51.47,0-.23.51,0,.16-.62-1.23-.09-1.77,1.11,0,.22.61-.22Zm-1.67-.56.59-.07.74-.54.51,0-.47-.32-1.07.34Zm.7-25.35-.35-.11-.16.62.36,0Zm.3,18.14-.22-.05v.46l-.32.18-.17.17.36,0,.21-.4Zm.66-13.27.28-.41-.55-.24-.35.42.1.29.24-.18Zm1.62,22-.55-.24-.48-.17,0,.3-.1.24.95,0-.11.24.25-.18Zm-.55-3.18-.12.31.43.11.2-.41Zm1-28.25.34-.26-.39.12-.76.69-.11.24Zm.85,30.15-.41-.18-.43-.1.15.51h.66Zm.6-1.58-.26-.19-.48-.25,0,.23.4.26Zm1.18-2-.34-.19-.28,0,0,.23-.58.45-.28.93h.73l.19-.32-.3-.42.41-.27.46-.13Zm-.61-1.74-.45,0-.28.41.74-.08Zm.47-1.26.58-.89.29-.49.07-.46-.51,0,0,.23.41.18-.87.48-.47.73Zm.78,4.59-.63-.16-.25.71.28,0,0,.23.43-.42Zm-.77-13,.25.27.59-.07,0-.23-.34-.18-.26-.2Zm.59,3.85-.47.74.25.8-.22.48.52-.59,0-.3.55-.29.09-.62-.47-.24ZM238,274.7l.19.21,0,.15-.13.39.54-.21-.12-.67Zm1.64,11.13-.39.12-.26-.2-.05.31-.17.17-.09.16-.17.17h.07l-.1.16.68.38.26.19,0-.29-.26-.2.12-.32h.15l.19-.32Zm-.88.47.83-.16-.34.33-.4.2-.27-.12.1-.16Z" transform="translate(-11.92 -69.35)"/><path class="cls-2" d="M329.16,263.06,327.58,271l-.91,2.15-.4,2-2,4.61-3,5L317.32,290l-3.39,3.56-3.65,2.55-1.59,1.41-7.95,4.17-1.79.71-1.92.33-2.08.64-5.51,1.14-2.6.2-2.09,0-5.45-.6L274,302.7,272.3,302l-5.77-3.72-2.37-2.69-2.93-4.25-.81-1.85L259.15,284l-.52-7.79.23-2.17.63-2.92.57-5.17,1.79-4.69.38-1.88,4.29-8.23,1.41-2.1,1.73-1.63,1.25-1.77,1.57-1.92,3.45-3.24,5.56-4.1,1.95-1.15,8.07-3.67,6.29-1.74,9.89-.62,2.12.37,2,.08,1.5.54,2.12.37,6.2,3.57,2.47,2.68,2,3,1.19,1.29,2.08,7.31-1.05,2.36-1.8.82-1.95.43-9.86,1.12-2.06-.78-2-1.41-.76-1.54-4.56-2.64-1.83-.3-5.14,0-2.83.43-4.13,1.8-1.84,1-3.68,2.77-3.05,3.2-2.08,4-.71,2.12-1.66,3.86-1,10.31.41,1.89.83,1.73.55,1.68.84,1.64,2.65,2.14,3.33,1.55,1.7.53,1.75.2,3.09-.15,2.94-.43,2.06-.54,4-1.69,1.73-1,3.35-3.24,1.05-1.75-.14-1.72-1.24-1-6.08,1h-1.78l-1.91.22-1.78-.71-.34-1.7-.11-1.92,1.36-7.81,1.2-2.07,3.29-1.5,25.27-2.88,2.78.6.9,1.93Zm-66.29,13.28.56-.47-.33.24-.23.23-.11.73.13-.23Zm2.7-13.46-.21-.59-.17-.19,0,.21-.38.55.24.38Zm.85,28.14,0,.21.57.14Zm40-.18,1.79-1.43,5.05-4.66,2.75-3.88,3-6.15.75-2.33.85-4.38-.59-2.08-6.06.19-1.52.27-2.1.14-5,.77-2.89.84-.15,1,1.61.42,11.89-1.46,1.65.94.41,1.89-.4,2-1,2.15-.71,2.13-2.36,3.83-2.81,3.59-1.41,1.49L304,290.29l-3.85,2-8.76,2.32-3.1.25-7.55-1.18-1.35-.86-1.77-.72-1.14-1-1.73-1-.87-1.43-1.38-1.37-.86-1.53-.44-1.69-.85-1.64-.95-3.56,0-2.14-.21-1.92.44-4.94.74-2.94.32-2.18,1.33-4.22,2.38-4.05,5-7.2,5.17-4.16,2-1.35,3.88-2.08,3-1.06,8.94-1.52,3.75.08,5.19,1.65,1.64.93,2.3,1.88,2.93,3.54,1.22-.24.05-1.64-3.23-4.22-1.15-.89-2-.79-1.24-1-5.51-1.51-6.54,0-4.3,1-4.9,1.68-4.06,2L284.36,243l-3.43,2.43L276,250.67l-2.85,3.79L271,258.28l-1.74,4.38-.52,2.2-.93,2.25-1,8.27.3,2,0,2.14.43,1.79,2.2,5.15.6,2,3.54,4.08,1.34,1,3.2,1.77,5.51,1.52,4,.36,6-.59,6.46-2.17ZM268.67,256l-.3,0-.28.54.51-.05Zm2.15-6.47.29.07-.07-.2.25-.33Zm1.24,17.6-.5.06.35.26.5-.05Zm2.49,1.86-.23.23-.36.45.43-.26.35-.34Zm8.08,31.39-.53.27-.26-.28-.18-.08,0,.21.1.6.72-.19Zm.36-10.33.15.28.48.76v-.61Zm3.93-53.57,0,.92.7-.69.11-.73Zm1.45,64.58-.42.14-.18.54.52-.16Zm1.49-55.13-.56.47-.39-.06.46.26Zm.65-11,.22-.13.33-.24.29.07-.06-.31-.18-.08Zm2.29,8.5-.62.17-.19.64.7-.08Zm.09,57.8-.25-1-.28-.07v1.22Zm1.65-1.1.25-.34h-.1l-.35.35.05.3Zm2.62.31-.47-.15-.63.27-.14-.39.36-.45-1.49.07.07.81.55.34.73-.28Zm-.69-57.73-.38-.06-.87.51.48.75.68-.58Zm-1.18-8.63,0,.4.61-.17.64-.28.15.29,0-.72-.86.41Zm3.62,8.25-.5-.66-.8.7-.74,1-.12.83.56-.47.09-.62.64-.28Zm-.43,57.24-.7.09.36-.46-.53-1.06-.56-.24-.15.32.34.37.18.8.21.59.76.22Zm-.9-29.77-.06-.3-.24.34.15.28Zm.48,19.32.58.14.34-.35-.24-.38-.5.06Zm1.92,8.34.09-.62-.7.08-.07.52Zm1.12.49.43-.87-.09-.09-1,.83-1,1.54.49.05.26-.43Zm-.27-56-.76.5-.05.31Zm-.66-10.83,0,.51.58,0,.08-.52Zm1.9,35.06-.8-.62.05-1-.55-1-.43.26-.07,1.13.45,1,.75.93Zm-1.24,22.88.59,0,.13-.83-.59,0Zm2.47,7.36-1.14.34-.14.93-.35.35-.67,1.2.19.69.43-.87.05-1,1.26-.46ZM303,271.85l1.33-.25-.54-.35-1.51.78-.58.58.91-.1Zm-.84-40.07.68,0,.24-.94-.8.09Zm.47,34.61,1.19,0-.06-.91h-1Zm1-24.18-.3-.68-.49.67,0,.4-.28.54.18.19.29-.65ZM303.15,263l.44,1.07.61-.17.74-.29.24-.95-.49,0-.29.64-.34-.37Zm.14,25-.07,1.13.69-.69-.06-.91Zm.27-56.21.37.16.26-.44-.27-.17Zm1.85,42-.62-.54-.85-.21-.24.23.82.52ZM304.9,242l-.72.18-.21.74.65-.38Zm.68,22.66.21.58.49-.66v-.72l.7-.69v-.61l-.61.07-.25,1Zm.13,21,.36.27.89-.71-.8.09Zm3.81,8.95.8-.7-.05-1-.76.5.09.7-.38.55-.81.1-1-.29-.67.48-.59-.65-.16,1,1,.4,1.14-.34,1.17-.54.39.06ZM306,233.28l.15.39.43-.25.11-.73.25-.34-.34.25Zm.75,63.33-.41.15-.18.53.42-.15Zm6.63-51.74-.81-.52.05.3.33,1.09-1.07.53-.79-.62,0-1.12-.86.5-1.41.16-.88-.1-.45-.25-.24-.38-.26-.28.06.3-.25.33.33-.24.36.27.34.37,1,.39,1.26.16,1.07.79.21.59,1.42-.26Zm-5.85,37.89.3.68,1.31-.15,1-.73-1.33-.36Zm.17-49.57.11.6.5-.06-.09-.7Zm.94,11.61v-.61l-.52-.45Zm0,48.43-.47-.15v.61l.5-.05Zm-.17-61.86.13.39.84-.91-.41,0Zm.25,49.42-.13.83.75-.39v-.62Zm17.38-15,.56-.47.2-1.35.27-1.16.63.45.17.18,0-.4-.35-.27,0-1.64-2.24-.25-.25-.28,0,1.43,2-.53-.78.6-.09.62-.94.31-1.18.65-.11-.6.25-1.05-.84-.31-.71.79-.13-.49.65-1-.52-.56-.69.7-.27-.18L321,261l.2.69-.55.37-.94-.4-.27-.78-.06-.3-1.54.38-1.49.07-1.67-.12-.95.42-.88.6-1.26.45.42.57-.68.59-.82.8-.16-.9-.6-.64,0-1.22-1.09.73.32,1.19.68.74.45.25.4,0,1.16-.44.56-.47-.32.85.64.34.88-.62-.16-.9.72-.18.78-.6.28.18-.31.74-.49.57-.46.46.5-.06.93.41,1.05-1,1.22,1.08.21-.73.82-1.53.9-.71L319,263.1l.6.64,1-.62.58,2.08.69,1.34.58.75-.5,2.71v1.33l-.18.53.57-.48.37-.55.19-1.24.54-1,1.32.46.75-1.72-.35-1Zm-17.26-31.57-.18.53.69,0,.09-.62Zm1.52,46.21-.71.09.14.39.78.11.59-.68.05-.31Zm1.61-9.46-.86-.21-1,1.55-.21,2.06.93,1,.42-.16-.5-1.26.27-1.15Zm-.28,5.84.13-.22-1.19,0-.53.87-.21,1.46.16-.43.38-.55.27.17.32-.85Zm.12,15.8-.85-.92-1,.11.31.57.66-.48.28.79,0,.81Zm-1.61-58.24,1.1.58,1.07.19.44-.36.16.29-.13.83.69,0,.18-.53-.54-.34-.43-.46-.45.35-.62-.43-.79-.73-.45-.25Zm.38-1.88.65-.38.23-.84-.62.17Zm4.84,56.44-.06-.91-1.09,0-1.14.34-.93.92-1,.62.51.55-.35.35.17.19.45-.37.06-.41.27-.44.79-.7,0,.51.84.31.48-.57.19.08Zm-3.83-15.47v.72l1,.19-.16-.9ZM314,291.7l-.1-.7-1.49.07-.78-.12.62.55,1.08.69Zm0-20.59-.31-.58-1.1.74.39.67.42-.15Zm-.08,3.16-.92.21.16.9-.45.36.62.54.86-.51.37-.45-.29-.07Zm.24-.94,0-.4-.4,0-.08.52Zm-.5-39.09.39.06.42-.16.89.62.53.45-1,1.12-.19.64.49-.67,1-.72,0-1.73-1.22.24-.49-.05-.4.05Zm1,38.53.24.38.43-.87.08-1.23-.37-.16-.34,1ZM316,236.62l-.13.83.41,0,.22-.83Zm1.36,51.23-.43.25-.28.55.63-.28Zm-.49-49.8.5-.05.18-.54-.5.06Zm.35,44.72.42-.15,1.48-1.29.45-1.68-.41.15-.53,1.48-1.14,1.05Zm0-46.7,1.2,0,.21-.74-1.1,0Zm3.81,47.49-.71.08-.91.81-.74.29-.29-.68.73-.9-.46-.25-.77,1.21.25,1,.22.48.43-.25.63-.89.87-.5Zm1.58-4-.23-.48v-1.23l-1.1-.58-.77-.22.33,1.19.54,1-.46.46-.43.26.4-.05.7.63-.13-.49-.35-.26,1.28-.66-.06.41Zm-.56-16.86.29,1.39-.73.9,0-.82-.51-.55.13-.83Zm2.38,12.57-.43-1.07-1.09.63-.32-.47-.74.29-.19.64-.13.21.15.29,0,.31.42-.15.28.07-.28.55.13.49.32-.85.88.1.28-.54.37.16Zm-2.7-35,.39.05-.12-.49Zm1,34.85.54.34-.35.35-.87-.1-.36-.27.47-.46Zm-.61-30.41.28.78.65.23.11-1.34-.6-.65Zm.37,21.36.65.34-.8.7Zm.71-18,.33.47.19-.64Zm.39,22,.36-.46-.37-.16-.25.34Zm1.78-6,.23.49-1.05,1-.38-.77Zm1.8,5.2-.55-1-.53.26.19.69-.7.7.37.87.21.59-.36.45.46-.46-.31-.58.11-.72Zm-.15-3.66-.34,1,.54-.26.4-.76Zm-.22-17.71,0,.82.57-.48Z" transform="translate(-11.92 -69.35)"/><path class="cls-2" d="M392,251.26l-.35,3.81-.63,2.26-.31,1.61-.6,1.58-.28,1.39-1,3-1.55,3-4,5.51-1.2,1.19-1.17,1.5-2.36,2.08-1.52.85-1.26,1.05L373,281.78l-5.87,2.56-4.56,1.12-4.18.55-1.54,0-2.59-.31-1.61,0-2-.52-5.35-2.4-2.16-1.71-.67-.91-1-1-.79-1.11-.75-.82-2.39-6.59-.23-2.84.07-1.44-.17-1.34,0-1.59,1.15-6.23,2.15-6.06,1.55-3,2.91-4.33,4.3-4.79,2.82-2.21,1.44-.84,1.25-1,5.9-2.79,8.06-2.05,2-.15,4.21.27,5.45,1.19,1,.71,2.09.75,1.53,1,1.87,1.67,1.73,2.14,1.3,2.11,1,2.68,1,5.54Zm-51.46,9.42-1,.34.24.35.64-.37Zm-.29,7.35.59-.52-.69.23-.56.29.13.14Zm2.37,5.69-.19-.21-.27-1.1-.18.7.29.5-.23.1-1.1.5-.64.83.94-.41.79-.84Zm-1.13-3.19.34-.34-.15-1-.58-.53-.75.16,0,.37ZM341,258.06l.61-.15.38-.65-.57.45Zm.59-2.48.12.13.36.57.4-.73-.26-.2Zm.61,21.87-.17-.28-.28.41Zm.7-.76-.41-.18-.38.57.45-.05Zm.7,1.21.79.13-.71-.67-1,.56Zm-.67-24,0,.38-.06.38.32-.19-.09-.36.11-.24,0-.3Zm39.77,10.62.54-1.65.83-1.67.44-1.49.83-4.09.46-5.48-.75-4.37-.49-1.07-.84-1.26-.53-1.38-1.83-2-3.17-2.28L373,236.15l-1.62,0L370,236l-2,.16-3.7.72-3.39,1.14-1.33.61-5.74,3.67-1.12,1.11-1.59,1.31-2,2.41L347,250.28l-.8,1.45-.7,1.74-.36,1.4-1.15,3.3-.7,4.68.09,1.42-.1,1.6.08,1.42,1.34,4.3,1.13,2.2,1,1.25.65,1.06,2.25,1.55,1.45.59,1,.56,2.74.82,2.5.39,4.11-.09,1.9-.44,1.51-.33,3.14-1,1.56-.63,3-1.63,1.38-.91,1.34-1.13L379,270.3ZM344.43,280l-.08-.44-.28-.57.13.59Zm39.75-28.07-.64,6.26-.46,1.63-.83,1.61-.44,1.48-2.08,4.16-1.09,1.4-4.75,4.85-4.42,2.61-1.24.52-4.53,1.43-2.11.39-2.06.08-2.77-.06-2.89-.73-1.32-.52-.87-.51-1.31-.53-1.73-1.68L347,272.16l-.49-1.08-.44-1.45-.78-1.2-.14-1.49v-1.43l-.3-1.4.84-6.13,1.55-4.47,1.48-3.12.78-1.29L352.8,245l4-3.17,5.76-2.77,5-1,2.15-.17,2.68.23,4,.82,1.29.69,3,2.22.82.89,1.85,3.79.18,1.26.46,1.3ZM347,280.67l-.27.87.43,0,.29-.94-.66-.45h-.74l.11.29Zm-.54-18.94.45.4-.1.24.63-.3.42.1.34.64.49-.8-.13-.59-.78-.21-1-.57-.22-.5-.38.57Zm-.06,17.13.48-.28.43,0-.76-.29-.38.57Zm-.13-33,.76-.16.2-.86-.82.1Zm.25,16.94.19-.25-.24.1Zm.66.53-.09-.37-.45.05-.14-.06.05.15.32.34Zm.15,6.85,1.26-.6.82-.62.73-.92.4-.27-.61-.83.13-1.38-.8-.51.09.37.53.39-1.11,1.11-.09-1.43-.29-1.47-1.12.66-.59.52,0,.68.43,0,.49-.81.42.18-.07.92-.23.1-.26-.2-.06.38.16.36-.17.17-.82.1.29.49-.27,1.31.65.61Zm.15-11.79-.36.42-.34-.19.21.58.36.49,1.6-.86.87-.93h-.74l0-.16-.19-.2,0-.76-.52.06v.9l-.37-.48-.71-.15-.41.8Zm.12,24.2-.23-.43-.25-.27-.28.41h.51Zm1.4-14.79-.33.71-.8-.51-.48-.7.38-.12,1,.34Zm-.51-9.37-.69-.23h.73l.63.15-.25.26Zm-.65-4.45.34.18.48-.28.17-.17-.29,0-.33.26Zm.89.88-.28-.05-.42.35v.53l.3.5.36-1,.45-.13Zm.92,4.19-.84.7-.73.46.17.36.75-.62.28-.41.25.28.48-.28Zm-1.14,12.05-.27.33-.16.54.37-.49Zm-.13,9.66.68-.6.29.49.12-.31-.39-.33-.38.12-.41.27Zm3.38,1.43-.06-.15-1.05.2-1.14-.17-.49.28-.42.42.55.24,1.62-.11Zm-.89-11.74-.53-.39-1.18,1-.49,1.33Zm-1.59-16.34.3,0,.38-.57-.4.19ZM349.8,269l-.3.56,0,.23.11-.24.32-.19.35-.42Zm.32,3.73.33.27.26-.26-.4-.25-.18-.28-.38.11.09.37Zm-.06-19.22H350l.34.19-.55.74.24.35.63-.3.2-1.38-.09-.82-.59.52Zm4.77,22,.69-.68.09-.61-.7-.22.08-.54-.39.2-.85-.74-.52-1.37-.51-.54-.29.48-.57-.09-.08-.44.22-.48-.68.08-.11.77,1.13.77-.46.66-.52.06.19-.32-.71.83-.7.31-.06.38,1.26-.14-.31.64.43.55.58.54,1,.41.45.47Zm-4.22,5.77.45-.58-.31-.42-.1-.29,0,.23-.31.56Zm3-28.32-.81,1.44-.44,1.49-.57,1.42-.7,4.68.17,2.77.46,1.31.19,1.18.83,1.34.81,1,1.75,1.45,1.09.56,2.51.84,1.6,0,4.1-.46,1.53-.48,1.2-.67,1.4-.53,4-2.94,1.22-1.35.62-1.2,1-1.48.72-1.43,1-2.91.85-4.7,0-1.35-.45-1.39-.46-2.81-2.43-2.81-2.06-1.43-1.25-.46-1.29-.15-3.51-.05-2.11.39-3,1.1-1,.49-4.11,3-2.15,2.66Zm-1.35,20.81.42.11-.59.52-.38.12Zm4,8.67-.33-.71-.44.5-.54.21-.13.4h-.59l.07-.46-.23-.43-.3,0-.44-.48.11-.24-.7.31-.39-.34.25-.25.15-.47-.63.75-.06.38.74.45.65.6-.18,1.15.36-.42-.07-.52.54.32,1.11-.58h.58Zm-3.35-33.93.31.35,0,.23.23-.11.19-.24.57-.45-.55-.69Zm1.09,35.4-.32.19-.36.42.44-.05Zm-.43-44.22.31.34.76-.69.76-.16,0-.22-1,0Zm1.39,5.35.07.07h.65l.57-.37-.61-.31Zm21.18,24.88.06-.46-.67.6-.36,0,.11-.77-.35-1.09.4-.72-.39.19-.8.92-.79.39-1,0-.24.63-1.16.44-.83.62-.84.77-.27-.19-1.28.75L367,273l-.41.27-.9.18-.41.27.26-.78-.17-.28-1,.64-.92-.2-2.63.45-.94,0-.76.16-.39.65-.57-.09-.44-.47-.19.77.38.41.59-.07.22-.47.25.8-.63.3-.87-.58-1.4.53-.95.49.61.38,1.23.09,1,.19,1-.35.56.17-.06.38-1,.26-.08-.44-.34.34,1,.34.82-.09,1-.26,1.38-.47.06.6.94-.41.21-.93.4-.19.18.73,1.21.24,1.14-.28,1-.72.79-.39.81-.47.08-1.06.36-.42,0,.22.51,1,1.26-1.13h.74l.2-.86.82-.09.84-1.23.69-.23.52-.59.11-.24.27.2.29,0Zm-20.68-33.08.16.88.78-.39-.19.33.23.42.39-.64-.82-.89-.28.41Zm1.7,47.47h.58l.16-.54-.46.13-.41.27-.1.16Zm6.79-2.37-.52-.92-.53.14-.92.71-.87,0-.82-.36-.91.18-.28.4h-1.16v.52l.86.59.65.07.62.31.32-.19.22-.55.26-.25.2.12,0-.22,1,.19-.12.76-.79-.05-.37.49.52.47.79-.39.65.07.76-.23.17-.63Zm-5.08,2.62-.06-.52-.6.07-.24.18.22,0,.23.43Zm-.49-41.35,0,.75.69-.22.86-.86.49-.35-.41-.18-.93-.2-.63.83Zm2.19-8.77.25.28.36,0-.09-.37Zm.08,39.66.65.08-.1.69-.63-.23Zm.48-31.65.13.13.13.06,0,.3-.17.17.3,0,.18.28.24-.18.21-.4-.25-.27-.34.26-.2-.13,0-.22Zm.33-1.7.26.2,1-.12-.24.63-.09.61.42.63.18-.7.43-.95.51.55.43,0-.17-.36-.15-.43.84-.25.29.5-.24.63-.75.61-.54.21-.06.39.26-.26.52-.06.64-.37.29-.49.35-.34v-.61l-.45-.85-1.35.69-1.42-.29Zm.5-5.86.38.41.51-.44-.38-.41Zm1.37,46.3.18.28,0,.29-.61.15.13-.39Zm1.82-7.3v.53l-.71.38-.28-.57.71-.39Zm2.24,9v-1.36l-1.07-.71-.84-.28-.8.47,0,.38-.31.56.54,1.3.36,0,1.2.32Zm-1.56-42.51.43,0,.75-.61.1.29,0,.29.13.14.26-.26-.32-.34,0-.6-.33.26-.28.41-.51,0Zm.4,41,.41.18-.57.37-.2-.13ZM368,241.18l-1.3-.16-.3.56.25.28.88,0,1,.34,1.1-.5.54-.21V240.4l-.87-.05-.1.69Zm-.5,33.31.33.19-.44.5-.52.06Zm2.52,5.14-.72-.07-.31,1.09-.71-.67h-.58l-.3.56,1.21.69.88-.47Zm-1.16-7,.51.55L368.3,273Zm2,8.9-.27-.65-.53-.32-.2.33.43.55Zm.2-2.29-.19.78.54-.22,1-.56,0-.76-1.16-.09-.79.39Zm.7,1.2.16-.09h-.08l-.62.22.29,0Zm0-40.05.38.41.58-.44-.33-.26Zm.36-6.37.6.46L373,234l-.06-.14-.49.36Zm4.88,43.41-.77.24-.09-.9.12-1.3-1,.05-.83.7-.7,1.73.18.74-1.24.44-.23,1.08.47-.2,1,.26.8-.92,0-.82-.41-.18.16-.62.23,0,.46.32.59-.52.22.43.65.08Zm-4.36-44.91.55.25.53.39.23-.11,0-.29-.64-.08-.22-.5,0-.3Zm1.79,36.6.61.84-1.13.2-.9-.35.83-.17ZM373.14,241l.72-.38.57.08.13-.39-.63-.68-.65.45Zm.58,26.56-.18.69.53-.13.11-.69Zm1.75-27-.42.35-.68.16-.39.64.55.24.81-.47.23.88-.1.69-.27.34.67-.08.33-.79.53-.06,0,.22.54-.67.07-.91-.43-.1-.62.75-.11-.75.05-.3-.55.21-.16-.36,0-.29-.13-.14Zm-1-6.67.6.38.71-.31-.12-.21-.42-.1Zm1.33,31.82-.47.2-.75.62.24.35,1-.56Zm-1.2-32.67.67-.07.94,0,.06-.91-.84.24Zm.5,43.23.7.22-.44.51v-.45Zm1.55-32-.49.36.48.25.42-.35Zm.25,23.35.25-.63-.73-.07-.09.62-.14.46.16-.09.3.95-.35.34.31-.11.28-.41v-1.06Zm-.33-34.05.28.57-.4.73.7.22.43-.43-.29-.57.51-1,.5-.36-.31.56-.13.93.55.69.11-1.22,1.16-.89-.14-.59h-.65l-1,.05-.32-.27-.29,0,.16.88-.29,1-.25-.35Zm1.29,32.05-.13-1.11-.61.22-.65.9Zm-.58-22.1.23.43.16.36.42.17.69.23-.17,1.15.57-.37v-1l.47-.21v-.45h-.51l.13-.85-.59,1-.59.06-.31-.34-.16-.43Zm2.07,31.29,0-.3-.73.46v-.9l-.62.22-.2-.13-.29,1.47.39.33.89-.56Zm-1.65-11.5L378,263l.28-.86-.55.74Zm1.89-16.66-.45.58-1.43-.21.51.47.45.47,1.08-.43,0-.22.28-.94ZM378.43,235l-.51.51.28.57.48-.28-.33-.27Zm-.51,7.82.43.1.19.21,0-.31.44-.5-.08-.45-.44.06-.5.35Zm3.86,16.83-.41-.18h-.66l-1.07-.18-1.38.91.41.71-.06.84h1.17L379.6,263l-.39-.33-.69.23.17.81.26.72-.36.42-.15,0,.28.57.33.26-.3.57.7-.31-.36-1.54.41-.73.39-.2,0-.29.4-.2-.05-.67.49-.36,0-.75.3-.56.18.28.1-.17-.28-.11-1,.48-.08-.44.76-.69.57-.37.31.42Zm-3-1.84.17.36.64-.38.75-.08.06-.47-.62-.22-.61.14Zm2-12.9.09.37-.48.73.61.38.56.17.2.58-.52.58-.82.55-.62-.23-.46.12.34.19-.5,1.42.63.15.35-.87.74-.53-.1.69.42.1.36,0,.4-.72.06-.92-.13-.58.37-.5-.53-.39-.32-.79Zm-1.31,11.69.3,0,.43-.42-.5-.1Zm.85-5.15-.57.36-.1.69.56-.36Zm0,20.43.29-.48-.44,0-.32.64ZM380,236.41l.44.48.59-.52-.08-.45-.12-.21.62-.67.13-.92H381l-.39.65.18.28,0,.23-.29.49Zm.47,36.6-.38.12v.53l.31-.11Zm-.12-27.67.11-.23.08-.09-.16.09Zm2.7,8.9-.36-.57.35-.34.06-.38-.31.11-1.26.07-.88,1.46-.25.7.64.16,1-1Zm-.49,2.77.13-1.37-.43,0-.75.61-.09,1.07-.41.8.53-.14.49.17Zm-.8-5.41.31-.12.67-.6.24-.1-.26-.2-.84.7Zm.35-17.09.06,1.05.42,1.16-.77.24.09.37,1.26-.6,1.08-1.33-.36-.56-.46.12Zm1.31,34.92-.46.13-.24.63-.4.2-.13.39.44,0,.47-.2,0-.31-.27-.12.33-.26Zm-1-.94.12.14.34-.27.5-.43,0-.31-.52.06-.23.56Zm1.1-33.46.4-.19.08.44-.29.49-.53.13-.23-.43Zm-.35,2.38,0,.68.52-.06.18-.7Zm1.93,26.85L384,265.52l.68-.61Zm.05-24.44.19-1.22-.85-.21-.3,0-.06.39.06.14.67.38.27.65,0,.37.42.1-.09-.36Zm-.93-3.06.59.46.14-.46.59-.52-.6-.39Zm1.38.6.39.78.56.17-.24-.35-.06-.6-.15-.44Zm.71,2.56L387,241l-.51,1-.36,0-.24.18.2.13.31-.11.89-.1-.52.51-.32.72.87.05.21,0-.58,1-.76-.29-.2-.21.11.3.39.78.68.37.42.11.05-.31-.32-.79.3-.56.21-.41-.39-.33.43-.42.23-.56-.29-.49.17-.17-.39-.86.07-1.45-.7.31Zm.33,21.83-.44.5.13.59.28.57.16-1.07Zm1.23,1.59-.15-.51-.59.07-.12.77Zm3.45-14.8-.74-1-.48-.17-.73.46-.24-.8-1.2.14-.47-.25-.11-.29-.05.38.8,1.5.5.09.41.18-.55.21-.61,1.2.46,1.31-.86.4-.27.33,1.16.09.51-1.48.16-2.06,0-.38.65.08.54.32-.7.76.34.18.21.51-.78.84.08.44.42-.35.86-.85Zm-3.92,10.56.48.24.15-.54-.46-.32Zm.24-5,.17.36.21.5,0,.61.57-.36-.22-1-.35-.11Zm.48-.81.31-.11-.28,0-.26-.27,0,.23Zm.08-8.38v.46l.38-.12v1l1.34-.15.18-1.23-.47-.25-.55.74-.44-.48Zm.73-2,0,.29.22.51.61-.15,0-.75Zm1,11.34,0-.83-.56-.16.48-.28-.05-.67-.59.52,0,.6.32.34.22.51Zm-.18-6.61.33-.27,0,.61-.67.07Zm3.48,9-.11.23-.28.41Z" transform="translate(-11.92 -69.35)"/><path class="cls-3" d="M159.39,240.65c3.52-2.43,5-6.62,6.41-10.48a153.55,153.55,0,0,0,4.47-14.74c.5-2,1.64-4.84,0-6.61-.43-.48-1.14.23-.7.71a3.08,3.08,0,0,1,.42,2.66c-.2,1.08-.49,2.15-.76,3.21q-.87,3.45-1.89,6.85t-2.16,6.64a54,54,0,0,1-2.32,5.88,12.63,12.63,0,0,1-4,5c-.53.37,0,1.23.5.87Z" transform="translate(-11.92 -69.35)"/><path class="cls-3" d="M160.28,236.71c-.78-1.78.16-3.71,1.08-5.23s2-3.13,3-4.76a45.68,45.68,0,0,0,5.44-16.48c.09-.64-.91-.63-1,0a45.56,45.56,0,0,1-3,11.29,43.34,43.34,0,0,1-2.59,5.25c-.95,1.65-2.1,3.17-3,4.84s-1.54,3.69-.71,5.59c.26.59,1.12.08.87-.5Z" transform="translate(-11.92 -69.35)"/></svg>