<?xml version="1.0" encoding="utf-8"?>
<!-- Generator: Adobe Illustrator 25.0.0, SVG Export Plug-In . SVG Version: 6.00 Build 0)  -->
<svg version="1.1" id="Capa_1" xmlns="http://www.w3.org/2000/svg" xmlns:xlink="http://www.w3.org/1999/xlink" x="0px" y="0px"
	 viewBox="0 0 295.2 225.2" style="enable-background:new 0 0 295.2 225.2;" xml:space="preserve">
<style type="text/css">
	.st0{fill:#FFFFFF;}
</style>
<g>
	<circle class="st0" cx="15.8" cy="16" r="15.8"/>
	<path class="st0" d="M279.4,31.9h-194c-8.8,0-15.8-7.1-15.8-15.8v0c0-8.8,7.1-15.8,15.8-15.8h194c8.8,0,15.8,7.1,15.8,15.8v0
		C295.2,24.8,288.1,31.9,279.4,31.9z"/>
</g>
<g>
	<circle class="st0" cx="15.8" cy="112.6" r="15.8"/>
	<path class="st0" d="M279.4,128.5h-194c-8.8,0-15.8-7.1-15.8-15.8v0c0-8.8,7.1-15.8,15.8-15.8h194c8.8,0,15.8,7.1,15.8,15.8v0
		C295.2,121.4,288.1,128.5,279.4,128.5z"/>
</g>
<g>
	<circle class="st0" cx="15.8" cy="209.4" r="15.8"/>
	<path class="st0" d="M279.4,225.2h-194c-8.8,0-15.8-7.1-15.8-15.8v0c0-8.8,7.1-15.8,15.8-15.8h194c8.8,0,15.8,7.1,15.8,15.8v0
		C295.2,218.2,288.1,225.2,279.4,225.2z"/>
</g>
</svg>
