<?xml version="1.0" encoding="utf-8"?>
<!-- Generator: Adobe Illustrator 25.0.0, SVG Export Plug-In . SVG Version: 6.00 Build 0)  -->
<svg version="1.1" id="Capa_1" xmlns="http://www.w3.org/2000/svg" xmlns:xlink="http://www.w3.org/1999/xlink" x="0px" y="0px"
	 viewBox="0 0 386.1 386.1" style="enable-background:new 0 0 386.1 386.1;" xml:space="preserve">
<style type="text/css">
	.st0{fill:#383838;stroke:#FFFFFF;stroke-width:2;stroke-miterlimit:10;}
	.st1{fill:#FFFFFF;}
	.st2{fill:#FFFFFF;stroke:#FFFFFF;stroke-width:10;stroke-miterlimit:10;}
</style>
<circle class="st0" cx="193" cy="193" r="192"/>
<path class="st1" d="M234.7,28.6c32.3,9,61.1,27.6,82.7,53.2c10.7,12.8,19.4,27.1,25.9,42.5c3.3,7.7,5.9,15.6,8,23.6
	c2,8.1,3.4,16.3,4.3,24.6C347.9,104.6,300.3,47.9,234.7,28.6z"/>
<path class="st1" d="M233.3,37.8c7.5,2.1,14.9,4.8,22,8c43.4,19.9,75.4,58.3,87.2,104.5c1.9,7.6,3.2,15.3,4,23.1
	c-5.4-47.2-31.4-89.6-71-115.8C262.5,48.9,248.2,42.3,233.3,37.8L233.3,37.8z"/>
<path class="st1" d="M231.9,47c7,2,13.9,4.6,20.5,7.6c6.6,3.1,13,6.6,19.2,10.7c24.6,16.2,43.9,39.4,55.2,66.6
	c5.7,13.5,9.3,27.8,10.7,42.4c-5.1-44.1-29.3-83.8-66.1-108.6C259.2,57.6,245.9,51.3,231.9,47L231.9,47z"/>
<path class="st1" d="M230.5,56.1c13.1,3.8,25.5,9.6,36.8,17.2c22.9,15.2,40.7,36.9,51.2,62.3c2.6,6.3,4.8,12.8,6.4,19.4
	c1.6,6.6,2.8,13.3,3.5,20.1c-3.1-27.2-14-52.9-31.4-74C279.7,80,256.6,64.4,230.5,56.1L230.5,56.1z"/>
<path class="st1" d="M229.1,65.3c12.1,3.6,23.6,9.1,34,16.2C273.6,88.6,283,97.2,291,107c16.1,19.7,26,43.7,28.4,69
	c-2.9-25.2-13-48.9-29-68.5c-7.9-9.8-17.2-18.4-27.5-25.5C252.5,74.8,241.1,69.2,229.1,65.3L229.1,65.3z"/>
<path class="st1" d="M227.8,74.5c22.3,7,42,20.5,56.6,38.8c14.7,18.2,23.7,40.3,26,63.6c-0.7-5.7-1.8-11.4-3.3-17
	c-4.4-16.8-12.3-32.5-23.3-46.1C269.3,95.6,249.8,82,227.8,74.5L227.8,74.5z"/>
<path class="st1" d="M226.4,83.6c20.3,6.6,38.2,19.1,51.4,35.9c13.3,16.7,21.5,36.9,23.5,58.2c-1.3-10.5-4-20.8-8.1-30.6
	c-4.1-9.8-9.4-18.9-16-27.2c-6.5-8.3-14.2-15.6-22.8-21.8c-4.3-3.1-8.8-5.8-13.5-8.3C236.2,87.5,231.4,85.4,226.4,83.6z"/>
<path class="st1" d="M225,92.8c18.3,6.2,34.4,17.7,46.2,33c5.9,7.6,10.7,16,14.3,24.9c3.6,8.9,5.9,18.3,6.8,27.9
	c-0.6-4.8-1.5-9.5-2.7-14.1c-1.2-4.6-2.7-9.2-4.6-13.6c-3.7-8.8-8.5-17.1-14.4-24.7C258.8,111.1,243.1,99.5,225,92.8z"/>
<path class="st1" d="M223.6,102c4,1.5,8,3.2,11.8,5.2c3.8,2,7.4,4.3,10.9,6.8c13.9,10.3,24.6,24.3,31,40.5c3.2,8,5.2,16.4,6,25
	c-2.2-17.1-8.8-33.2-19.2-46.9c-5.2-6.8-11.2-12.9-18.1-18.1C239.1,109.4,231.6,105.2,223.6,102L223.6,102z"/>
<path class="st1" d="M222.2,111.2c3.5,1.4,7,3,10.3,4.8c3.3,1.9,6.5,3.9,9.5,6.2c12.1,9.3,21.4,21.8,26.9,36.1
	c1.4,3.5,2.5,7.2,3.4,10.9c0.9,3.7,1.5,7.4,1.9,11.2c-2-15-7.8-29.3-16.8-41.5c-4.5-6.1-9.8-11.5-15.7-16.2c-3-2.3-6.1-4.5-9.3-6.4
	C229.1,114.4,225.7,112.6,222.2,111.2z"/>
<path class="st1" d="M220.8,120.3c3,1.3,6,2.8,8.8,4.5c2.8,1.7,5.5,3.6,8.1,5.6c5.1,4.1,9.7,9,13.6,14.3c3.9,5.3,7,11.2,9.4,17.3
	c1.2,3.1,2.1,6.2,2.9,9.4c0.7,3.2,1.3,6.5,1.6,9.7c-0.4-3.2-1.1-6.5-1.9-9.6c-2.5-9.5-6.7-18.5-12.5-26.4c-1.9-2.7-4-5.2-6.2-7.6
	c-2.2-2.4-4.6-4.6-7.1-6.7c-2.5-2.1-5.2-4-7.9-5.8C226.7,123.3,223.8,121.7,220.8,120.3z"/>
<path class="st1" d="M219.4,129.5c5.1,2.4,9.8,5.5,14,9.1c4.2,3.7,8,7.8,11.2,12.4c3.2,4.6,5.8,9.6,7.8,14.8c1,2.6,1.8,5.3,2.4,8
	c0.6,2.7,1,5.5,1.3,8.2c-0.8-5.5-2.2-10.9-4.2-16.1c-4.1-10.3-10.5-19.6-18.8-27C228.9,135.3,224.3,132.1,219.4,129.5z"/>
<path class="st1" d="M142.2,351.7c-16.1-4.4-31.4-11.3-45.3-20.4C68.6,313.2,46.6,287,33.5,256c-3.3-7.7-5.9-15.6-8-23.6
	c-2-8.1-3.4-16.3-4.2-24.6C29,275.7,76.6,332.4,142.2,351.7z"/>
<path class="st1" d="M143.6,342.6c-7.5-2.1-14.9-4.8-22-8c-7.1-3.3-14-7-20.5-11.3c-26.4-17.2-47.1-41.9-59.2-71
	c-6.1-14.4-10-29.7-11.4-45.3C37.6,270.7,82.1,324,143.6,342.6L143.6,342.6z"/>
<path class="st1" d="M145,333.4c-14.1-4-27.5-10.2-39.7-18.3c-24.7-16.2-43.9-39.4-55.2-66.6c-5.7-13.5-9.3-27.8-10.7-42.4
	c3.3,29.2,15.1,56.8,33.9,79.3C92,308.1,116.9,324.7,145,333.4L145,333.4z"/>
<path class="st1" d="M146.3,324.2c-26.3-7.8-49.7-23.4-67-44.6c-17.5-21.2-28.2-47.1-30.8-74.4c3.1,27.2,14,52.9,31.4,73.9
	C97.2,300.3,120.3,316,146.3,324.2z"/>
<path class="st1" d="M147.7,315c-6-1.8-11.9-4.1-17.6-6.8c-5.7-2.7-11.2-5.9-16.4-9.4c-10.5-7.1-19.8-15.7-27.8-25.5
	c-16.1-19.7-26-43.7-28.4-69c2.9,25.1,13,48.9,29,68.5C102.4,292.5,123.7,307.2,147.7,315z"/>
<path class="st1" d="M149.1,305.9c-22.3-7-42-20.5-56.6-38.8c-7.3-9.1-13.2-19.2-17.6-29.9c-2.2-5.4-4-10.9-5.4-16.5
	c-1.4-5.6-2.4-11.4-2.9-17.1c2.8,23.1,11.9,45,26.5,63.2c7.2,9,15.7,17,25.2,23.6C127.7,296.9,138.1,302.1,149.1,305.9L149.1,305.9z
	"/>
<path class="st1" d="M150.5,296.7c-10.1-3.3-19.7-8-28.3-14.1c-8.7-6.1-16.5-13.4-23.1-21.8c-6.6-8.3-12-17.6-16-27.4
	c-2-4.9-3.6-10-4.9-15.1c-1.2-5.1-2.1-10.4-2.6-15.6c1.3,10.5,4,20.8,8.1,30.6c4.1,9.8,9.4,18.9,16,27.2
	c6.5,8.3,14.2,15.6,22.8,21.8c4.3,3.1,8.8,5.8,13.5,8.3C140.6,292.8,145.5,294.9,150.5,296.7z"/>
<path class="st1" d="M151.9,287.5c-4.5-1.6-9-3.4-13.2-5.6c-12.9-6.6-24.1-16-33-27.4c-5.9-7.6-10.7-16-14.3-24.9
	c-1.8-4.5-3.2-9-4.3-13.7c-1.1-4.7-1.9-9.4-2.4-14.2c1.2,9.5,3.7,18.8,7.3,27.6c3.6,8.8,8.5,17.1,14.3,24.7
	c5.9,7.6,12.7,14.3,20.5,19.9C134.5,279.6,142.9,284.2,151.9,287.5L151.9,287.5z"/>
<path class="st1" d="M153.3,278.4c-8.1-2.9-15.7-7-22.6-12.1c-6.9-5.1-13.1-11.2-18.3-18.1c-7.9-10.3-13.5-22.1-16.5-34.7
	c-1-4.2-1.7-8.4-2.1-12.7c1.1,8.5,3.3,16.8,6.5,24.8c3.2,7.9,7.5,15.4,12.7,22.1c7.8,10.3,17.6,18.8,28.8,25.1
	C145.4,274.9,149.3,276.8,153.3,278.4z"/>
<path class="st1" d="M154.7,269.2c-3.5-1.4-7-3-10.3-4.8c-3.3-1.9-6.5-3.9-9.5-6.2c-6-4.6-11.4-10.1-15.9-16.2
	c-4.5-6.1-8.2-12.8-11-19.9c-2.8-7.1-4.5-14.5-5.2-22.1c0.5,3.7,1.2,7.5,2.2,11.1c2.9,11,7.8,21.3,14.6,30.4
	c4.5,6.1,9.8,11.5,15.7,16.2c3,2.3,6.1,4.5,9.3,6.4C147.8,266,151.2,267.7,154.7,269.2z"/>
<path class="st1" d="M156,260c-3-1.3-6-2.8-8.8-4.4c-2.8-1.7-5.5-3.6-8.1-5.6c-5.1-4.1-9.7-9-13.6-14.3c-5.8-8-10-17.1-12.2-26.8
	c-0.7-3.2-1.3-6.4-1.6-9.7c0.4,3.3,1.1,6.5,1.9,9.6c4.1,16,13.2,30.2,25.8,40.7c2.5,2.1,5.2,4,7.9,5.8
	C150.2,257.1,153.1,258.6,156,260z"/>
<path class="st1" d="M157.4,250.8c-2.5-1.2-4.9-2.6-7.3-4.1c-7-4.6-13.1-10.5-17.9-17.4c-3.2-4.6-5.8-9.6-7.7-14.8
	c-1-2.6-1.8-5.3-2.4-8c-0.6-2.7-1-5.5-1.3-8.2c0.4,2.7,1,5.5,1.7,8.1c0.7,2.7,1.5,5.3,2.6,7.9c2,5.2,4.6,10.1,7.8,14.6
	c3.2,4.6,6.9,8.7,11,12.4C148,245,152.6,248.2,157.4,250.8z"/>
<path class="st1" d="M58.4,83.7c3.2-4.1,6.6-8.1,10.3-11.8c3.6-3.8,7.5-7.3,11.5-10.7s8.2-6.5,12.5-9.5c4.3-2.9,8.8-5.6,13.4-8.1
	c-4.5,2.7-8.8,5.5-13.1,8.5s-8.4,6.2-12.3,9.6S72.8,68.7,69,72.3S61.8,79.8,58.4,83.7z"/>
<path class="st1" d="M65.5,89.4c3-3.9,6.3-7.7,9.8-11.2c3.4-3.6,7.1-6.9,10.9-10.1s7.8-6.2,11.9-9c4.1-2.8,8.4-5.3,12.8-7.6
	c-4.2,2.5-8.4,5.2-12.4,8.1s-8,5.9-11.7,9s-7.4,6.5-11,10S68.8,85.7,65.5,89.4z"/>
<path class="st1" d="M72.6,95c2.9-3.7,5.9-7.3,9.2-10.6c3.3-3.4,6.7-6.5,10.3-9.6s7.4-5.8,11.3-8.4c3.9-2.6,7.9-5,12.1-7.2
	c-4,2.4-8,4.9-11.8,7.6s-7.5,5.5-11.1,8.6s-7,6.1-10.4,9.4S75.7,91.5,72.6,95z"/>
<path class="st1" d="M79.7,100.7c2.7-3.5,5.6-6.8,8.7-10c3.1-3.2,6.4-6.2,9.8-9c3.4-2.8,7-5.5,10.7-7.9c3.7-2.5,7.5-4.7,11.5-6.7
	c-3.8,2.3-7.5,4.7-11.1,7.2s-7.1,5.2-10.5,8S92,88,88.8,91S82.7,97.4,79.7,100.7z"/>
<path class="st1" d="M86.8,106.4c2.5-3.3,5.3-6.4,8.2-9.4c2.9-3,6-5.8,9.2-8.5c3.2-2.6,6.6-5.1,10-7.4c3.5-2.3,7.1-4.4,10.8-6.3
	c-3.6,2.1-7.1,4.4-10.5,6.8s-6.7,4.9-9.9,7.5s-6.3,5.4-9.2,8.3S89.6,103.2,86.8,106.4z"/>
<path class="st1" d="M93.9,112c2.4-3.1,4.9-6,7.7-8.8c2.7-2.8,5.6-5.4,8.6-7.9c3-2.5,6.2-4.8,9.4-6.9c3.3-2.1,6.6-4.1,10.1-5.8
	c-3.3,2-6.6,4.1-9.8,6.3s-6.3,4.6-9.3,7s-5.9,5-8.7,7.8S96.5,109.1,93.9,112z"/>
<path class="st1" d="M101,117.7c2.2-2.9,4.6-5.6,7.1-8.2c2.5-2.6,5.2-5.1,8-7.4c2.8-2.3,5.8-4.4,8.8-6.4c3-2,6.2-3.8,9.5-5.4
	c-3.1,1.8-6.2,3.8-9.1,5.8c-3,2.1-5.9,4.2-8.7,6.5s-5.5,4.7-8.1,7.2S103.5,115,101,117.7z"/>
<path class="st1" d="M108.2,123.3c2-2.7,4.3-5.2,6.6-7.6c4.7-4.8,10-9.1,15.6-12.8c2.8-1.8,5.8-3.5,8.8-4.9
	c-2.9,1.7-5.7,3.5-8.5,5.4s-5.5,3.9-8,6s-5.1,4.3-7.5,6.6S110.4,120.8,108.2,123.3z"/>
<path class="st1" d="M115.3,129c1.9-2.5,3.9-4.8,6.1-7c2.2-2.2,4.5-4.3,6.9-6.3c2.4-1.9,5-3.8,7.6-5.4c2.6-1.7,5.3-3.2,8.2-4.5
	c-2.7,1.6-5.3,3.2-7.8,5s-5,3.6-7.4,5.5c-2.4,2-4.7,4-7,6.1C119.5,124.6,117.4,126.7,115.3,129z"/>
<path class="st1" d="M122.4,134.6c1.7-2.3,3.6-4.4,5.6-6.4c2-2,4.1-3.9,6.3-5.7c2.2-1.8,4.6-3.4,7-4.9c2.4-1.5,4.9-2.8,7.5-4
	c-2.4,1.4-4.9,2.9-7.2,4.5s-4.6,3.2-6.8,5s-4.3,3.6-6.4,5.5C126.3,130.5,124.3,132.6,122.4,134.6z"/>
<path class="st1" d="M129.5,140.3c1.6-2.1,3.2-4,5.1-5.8c1.8-1.8,3.7-3.5,5.8-5.2c2-1.6,4.2-3.1,6.4-4.4c2.2-1.3,4.5-2.5,6.8-3.6
	c-2.2,1.3-4.4,2.6-6.5,4.1s-4.2,2.9-6.2,4.5s-3.9,3.2-5.8,5S131.3,138.4,129.5,140.3z"/>
<path class="st1" d="M136.6,146c1.4-1.8,2.9-3.6,4.6-5.2c3.3-3.3,6.9-6.1,10.9-8.5c2-1.2,4-2.2,6.2-3.1c-2,1.2-4,2.4-5.9,3.6
	s-3.8,2.6-5.6,4s-3.6,2.9-5.2,4.4S138.2,144.3,136.6,146z"/>
<circle class="st2" cx="188.4" cy="190.2" r="41.7"/>
<path class="st1" d="M321.2,305c-3.2,4.1-6.6,8.1-10.3,11.8c-3.6,3.8-7.5,7.3-11.5,10.7s-8.2,6.5-12.5,9.5c-4.3,2.9-8.8,5.6-13.4,8
	c4.5-2.7,8.8-5.5,13.1-8.5s8.4-6.2,12.4-9.5s7.8-6.9,11.5-10.5S317.7,309,321.2,305z"/>
<path class="st1" d="M314,299.4c-3,3.9-6.3,7.7-9.8,11.2c-3.5,3.6-7.1,6.9-10.9,10.1s-7.8,6.2-11.9,9c-4.1,2.8-8.4,5.3-12.8,7.6
	c4.2-2.5,8.4-5.2,12.4-8.1s8-5.9,11.7-9s7.4-6.5,11-10S310.8,303.1,314,299.4z"/>
<path class="st1" d="M307,293.7c-2.9,3.7-6,7.3-9.2,10.6c-3.3,3.4-6.7,6.5-10.3,9.6s-7.4,5.8-11.3,8.4c-3.9,2.6-7.9,5-12.1,7.2
	c4-2.4,8-4.9,11.8-7.6s7.5-5.5,11.1-8.5s7-6.1,10.4-9.4S303.9,297.2,307,293.7z"/>
<path class="st1" d="M299.8,288c-2.7,3.5-5.6,6.8-8.7,10c-3.1,3.2-6.4,6.2-9.8,9c-3.4,2.8-7,5.5-10.6,8c-3.7,2.5-7.5,4.7-11.4,6.7
	c3.8-2.3,7.5-4.7,11.1-7.2s7.1-5.2,10.5-8s6.7-5.8,9.8-8.9S296.9,291.4,299.8,288z"/>
<path class="st1" d="M292.7,282.4c-2.5,3.3-5.3,6.4-8.2,9.4c-2.9,3-6,5.8-9.2,8.5c-3.2,2.6-6.6,5.1-10,7.4
	c-3.5,2.3-7.1,4.4-10.8,6.3c3.6-2.1,7.1-4.4,10.5-6.8s6.7-4.9,9.9-7.5s6.3-5.4,9.2-8.3S290,285.5,292.7,282.4z"/>
<path class="st1" d="M285.6,276.8c-2.4,3.1-4.9,6-7.7,8.8c-2.7,2.8-5.6,5.4-8.6,7.9c-3,2.5-6.2,4.8-9.4,6.9
	c-3.3,2.1-6.6,4.1-10.1,5.8c3.3-2,6.6-4.1,9.8-6.3s6.3-4.5,9.3-7s5.9-5,8.7-7.8S283,279.6,285.6,276.8z"/>
<path class="st1" d="M278.5,271.1c-2.2,2.9-4.6,5.6-7.1,8.2c-2.5,2.6-5.2,5.1-8,7.4c-2.8,2.3-5.8,4.4-8.8,6.4c-3,2-6.2,3.8-9.5,5.4
	c3.1-1.9,6.2-3.8,9.1-5.9c3-2.1,5.9-4.2,8.7-6.5s5.5-4.7,8.1-7.2S276,273.8,278.5,271.1z"/>
<path class="st1" d="M271.4,265.4c-2,2.7-4.3,5.2-6.6,7.6c-2.4,2.4-4.9,4.7-7.5,6.8c-2.6,2.1-5.4,4.1-8.2,5.9
	c-2.8,1.8-5.8,3.5-8.8,4.9c2.9-1.7,5.7-3.5,8.5-5.4c2.8-1.9,5.5-3.9,8-6c2.5-2.1,5.1-4.3,7.5-6.6S269.1,267.9,271.4,265.4z"/>
<path class="st1" d="M264.3,259.8c-1.9,2.5-3.9,4.8-6.1,7c-2.2,2.2-4.5,4.3-6.9,6.3c-2.4,1.9-5,3.8-7.6,5.4
	c-2.6,1.7-5.3,3.2-8.2,4.5c2.7-1.6,5.3-3.2,7.8-5s5-3.6,7.4-5.5c2.4-2,4.7-4,7-6.1C260.1,264.2,262.2,262,264.3,259.8z"/>
<path class="st1" d="M257.2,254.1c-1.7,2.3-3.6,4.4-5.6,6.4c-2,2-4.1,3.9-6.3,5.7c-2.2,1.8-4.6,3.4-7,4.9c-2.4,1.5-4.9,2.8-7.5,4
	c2.4-1.4,4.9-2.9,7.2-4.5s4.6-3.2,6.8-5s4.3-3.6,6.4-5.5S255.2,256.2,257.2,254.1z"/>
<path class="st1" d="M250,248.5c-1.6,2.1-3.2,4-5.1,5.8c-3.6,3.7-7.7,6.9-12.1,9.6c-2.2,1.4-4.5,2.5-6.8,3.6
	c2.2-1.3,4.4-2.6,6.5-4.1s4.2-2.9,6.2-4.5s3.9-3.3,5.8-5S248.3,250.3,250,248.5z"/>
<path class="st1" d="M242.9,242.8c-1.4,1.8-2.9,3.6-4.6,5.2c-3.3,3.3-6.9,6.1-10.9,8.5c-2,1.2-4,2.2-6.2,3.1c2-1.2,4-2.4,5.9-3.6
	c1.9-1.3,3.8-2.6,5.6-4s3.6-2.9,5.2-4.4S241.3,244.4,242.9,242.8z"/>
</svg>
