<?xml version="1.0" encoding="utf-8"?>
<!-- Generator: Adobe Illustrator 25.0.0, SVG Export Plug-In . SVG Version: 6.00 Build 0)  -->
<svg version="1.1" id="Capa_1" xmlns="http://www.w3.org/2000/svg" xmlns:xlink="http://www.w3.org/1999/xlink" x="0px" y="0px"
	 viewBox="0 0 24 24" style="enable-background:new 0 0 24 24;" xml:space="preserve">
<style type="text/css">
	.st0{fill:#FFFFFF;}
</style>
<path class="st0" d="M17.8,12.5c0.3-0.5,0.2-1.1-0.3-1.3c0,0,0,0,0,0l-9.9-6C7.4,5,7.2,5,7,5C6.5,5,6,5.4,6,6V18
	c0,0.2,0.1,0.4,0.2,0.5c0.3,0.5,0.9,0.6,1.4,0.3l9.9-6C17.6,12.8,17.7,12.6,17.8,12.5L17.8,12.5z M18.6,14.5l-9.9,6
	c-1.4,0.9-3.3,0.4-4.2-1C4.2,19.1,4,18.6,4,18V6c0-1.6,1.4-3,3-3c0.6,0,1.1,0.2,1.6,0.4l9.9,6c1.4,0.9,1.9,2.7,1,4.1
	C19.3,14,19,14.3,18.6,14.5z"/>
</svg>
