<?xml version="1.0" encoding="utf-8"?>
<!-- Generator: Adobe Illustrator 25.0.0, SVG Export Plug-In . SVG Version: 6.00 Build 0)  -->
<svg version="1.1" id="Layer_1" xmlns="http://www.w3.org/2000/svg" xmlns:xlink="http://www.w3.org/1999/xlink" x="0px" y="0px"
	 viewBox="0 0 512 512" style="enable-background:new 0 0 512 512;" xml:space="preserve">
<style type="text/css">
	.st0{fill:#FFFFFF;}
</style>
<g>
	<g>
		<path class="st0" d="M507.7,418.1c0.2-0.3,0.5-0.6,0.7-0.9c0.2-0.3,0.4-0.6,0.6-0.9c0.2-0.3,0.4-0.6,0.5-0.9
			c0.2-0.3,0.3-0.6,0.5-1c0.1-0.3,0.3-0.6,0.4-0.9c0.1-0.3,0.2-0.6,0.4-1c0.1-0.3,0.2-0.7,0.4-1c0.1-0.3,0.2-0.6,0.2-1
			c0.1-0.4,0.2-0.7,0.3-1.1c0.1-0.4,0.1-0.8,0.2-1.1c0-0.3,0.1-0.6,0.1-0.9c0.1-1.4,0.1-2.8,0-4.2c0-0.3-0.1-0.6-0.1-0.9
			c-0.1-0.4-0.1-0.8-0.2-1.1c-0.1-0.4-0.2-0.7-0.3-1.1c-0.1-0.3-0.2-0.6-0.2-1c-0.1-0.3-0.2-0.7-0.4-1c-0.1-0.3-0.2-0.6-0.4-1
			c-0.1-0.3-0.3-0.6-0.4-0.9c-0.2-0.3-0.3-0.7-0.5-1c-0.2-0.3-0.3-0.6-0.5-0.9c-0.2-0.3-0.4-0.6-0.6-0.9c-0.2-0.3-0.4-0.6-0.7-0.9
			c-0.2-0.3-0.4-0.5-0.6-0.8c-0.4-0.5-0.9-1-1.4-1.5c0,0,0,0,0,0l-64-64c-8.3-8.3-21.8-8.3-30.2,0c-8.3,8.3-8.3,21.8,0,30.2
			l27.6,27.6h-76.5c-70.7,0-128-57.3-128-128s57.3-128,128-128h76.5l-27.6,27.6c-8.3,8.3-8.3,21.8,0,30.2s21.8,8.3,30.2,0l64-64
			c0,0,0,0,0,0c0.5-0.5,1-1,1.4-1.6c0.2-0.2,0.4-0.5,0.6-0.8c0.2-0.3,0.5-0.6,0.7-0.9c0.2-0.3,0.4-0.6,0.6-0.9
			c0.2-0.3,0.4-0.6,0.5-0.9c0.2-0.3,0.3-0.6,0.5-1c0.1-0.3,0.3-0.6,0.4-0.9c0.1-0.3,0.2-0.6,0.4-1c0.1-0.3,0.2-0.7,0.4-1
			c0.1-0.3,0.2-0.6,0.2-1c0.1-0.4,0.2-0.7,0.3-1.1c0.1-0.4,0.1-0.8,0.2-1.1c0-0.3,0.1-0.6,0.1-0.9c0.1-1.4,0.1-2.8,0-4.2
			c0-0.3-0.1-0.6-0.1-0.9c-0.1-0.4-0.1-0.8-0.2-1.1c-0.1-0.4-0.2-0.7-0.3-1.1c-0.1-0.3-0.2-0.6-0.2-1c-0.1-0.3-0.2-0.7-0.4-1
			c-0.1-0.3-0.2-0.6-0.4-1c-0.1-0.3-0.3-0.6-0.4-0.9c-0.2-0.3-0.3-0.7-0.5-1c-0.2-0.3-0.3-0.6-0.5-0.9c-0.2-0.3-0.4-0.6-0.6-0.9
			c-0.2-0.3-0.4-0.6-0.7-0.9c-0.2-0.3-0.4-0.5-0.6-0.8c-0.4-0.5-0.9-1.1-1.4-1.6c0,0,0,0,0,0l-64-64c-8.3-8.3-21.8-8.3-30.2,0
			c-8.3,8.3-8.3,21.8,0,30.2l27.6,27.6h-76.5c-64.3,0-120.2,35.5-149.3,88c-29.1-52.5-85.1-88-149.3-88H21.3
			C9.6,85.3,0,94.9,0,106.7S9.6,128,21.3,128H64c70.7,0,128,57.3,128,128S134.7,384,64,384H21.3C9.6,384,0,393.6,0,405.3
			s9.6,21.3,21.3,21.3H64c64.3,0,120.2-35.5,149.3-88c29.1,52.5,85.1,88,149.3,88h76.5l-27.6,27.6c-8.3,8.3-8.3,21.8,0,30.2
			c8.3,8.3,21.8,8.3,30.2,0l64-64c0,0,0,0,0,0c0.5-0.5,1-1,1.4-1.6C507.4,418.6,507.5,418.3,507.7,418.1z"/>
	</g>
</g>
</svg>
