<?xml version="1.0" encoding="utf-8"?>
<!-- Generator: Adobe Illustrator 25.0.0, SVG Export Plug-In . SVG Version: 6.00 Build 0)  -->
<svg version="1.1" id="Capa_1" xmlns="http://www.w3.org/2000/svg" xmlns:xlink="http://www.w3.org/1999/xlink" x="0px" y="0px"
	 viewBox="0 0 400 400" style="enable-background:new 0 0 400 400;" xml:space="preserve">
<style type="text/css">
	.st0{fill:#FFFFFF;}
</style>
<path class="st0" d="M343.04,127.58l-75.87-6.05l-29.2-70.29C230.95,34.34,215.47,25.9,200,25.9c-15.47,0-30.95,8.45-37.96,25.34
	l-29.2,70.29l-75.87,6.05C20.5,130.48,5.71,176,33.5,199.79l57.83,49.49l-17.69,74.03c-6.61,27.64,15.29,50.79,40.03,50.79
	c7.1,0,14.44-1.91,21.4-6.16l64.94-39.7l64.94,39.7c6.96,4.26,14.3,6.16,21.4,6.16c24.73,0,46.63-23.15,40.03-50.79l-17.69-74.03
	l57.83-49.49C394.29,176,379.5,130.48,343.04,127.58z M346.93,176.93l-57.83,49.49l-13.98,11.96l4.28,17.89l17.69,74.03
	c0.84,3.53,0.24,6.54-1.85,9.18c-2.2,2.79-5.61,4.52-8.91,4.52c-1.92,0-3.78-0.57-5.7-1.75l-64.94-39.7l-15.7-9.6l-15.7,9.6
	l-64.94,39.7c-1.92,1.17-3.79,1.75-5.7,1.75c-3.3,0-6.71-1.73-8.91-4.52c-2.09-2.65-2.69-5.65-1.85-9.19l17.69-74.03l4.28-17.89
	l-13.98-11.96l-57.83-49.49c-4.86-4.16-4.16-9.16-3.31-11.77c0.85-2.61,3.22-7.07,9.6-7.58l75.87-6.05l18.34-1.46l7.06-16.99
	l29.2-70.29c2.45-5.91,7.43-6.79,10.17-6.79c2.75,0,7.72,0.88,10.17,6.79l29.2,70.29l7.06,16.99l18.34,1.46l75.87,6.05
	c6.38,0.51,8.75,4.97,9.6,7.58C351.1,167.76,351.79,172.77,346.93,176.93z"/>
</svg>
