<?xml version="1.0" encoding="utf-8"?>
<!-- Generator: Adobe Illustrator 25.0.0, SVG Export Plug-In . SVG Version: 6.00 Build 0)  -->
<svg version="1.1" id="Capa_1" xmlns="http://www.w3.org/2000/svg" xmlns:xlink="http://www.w3.org/1999/xlink" x="0px" y="0px"
	 viewBox="0 0 400 400" style="enable-background:new 0 0 400 400;" xml:space="preserve">
<style type="text/css">
	.st0{fill:#FFFFFF;}
</style>
<path class="st0" d="M343,127.6l-75.9-6.1L238,51.2c-7-16.9-22.5-25.3-38-25.3s-30.9,8.4-38,25.3l-29.2,70.3L57,127.6
	c-36.5,2.9-51.3,48.4-23.5,72.2l57.8,49.5l-17.7,74c-6.6,27.6,15.3,50.8,40,50.8c7.1,0,14.4-1.9,21.4-6.2l64.9-39.7l64.9,39.7
	c7,4.3,14.3,6.2,21.4,6.2c24.7,0,46.6-23.1,40-50.8l-17.7-74l57.8-49.5C394.3,176,379.5,130.5,343,127.6z"/>
</svg>
