<?xml version="1.0" encoding="utf-8"?>
<!-- Generator: Adobe Illustrator 25.0.0, SVG Export Plug-In . SVG Version: 6.00 Build 0)  -->
<svg version="1.1" id="Capa_1" xmlns="http://www.w3.org/2000/svg" xmlns:xlink="http://www.w3.org/1999/xlink" x="0px" y="0px"
	 viewBox="0 0 385 385" style="enable-background:new 0 0 385 385;" xml:space="preserve">
<style type="text/css">
	.st0{fill:#FFFFFF;}
</style>
<g>
	<g id="Arrow_Up_Circle">
		<path class="st0" d="M192.5,0C86.2,0,0,86.2,0,192.5C0,298.8,86.2,385,192.5,385C298.8,385,385,298.8,385,192.5
			C385,86.2,298.8,0,192.5,0z M192.5,360.9c-93,0-168.4-75.4-168.4-168.4S99.5,24.1,192.5,24.1s168.4,75.4,168.4,168.4
			S285.5,360.9,192.5,360.9z"/>
		<path class="st0" d="M201.1,75.7c-2.3-2.2-5.4-3.5-8.6-3.5c-3.2,0-6.3,1.3-8.6,3.5l-84.2,83c-4.8,4.7-4.7,12.3,0,17
			c4.8,4.7,12.4,4.7,17.2,0l63.5-62.6v187.6c0,6.6,5.4,12,12.2,12s12.2-5.4,12.2-12V113.2l63.5,62.6c4.7,4.7,12.4,4.7,17.2,0
			c4.7-4.7,4.7-12.3,0-17L201.1,75.7z"/>
	</g>
</g>
</svg>
