<svg id="Capa_1" data-name="Capa 1" xmlns="http://www.w3.org/2000/svg" viewBox="0 0 20.5 15.5"><defs><style>.cls-1,.cls-2{fill:none;stroke:#fff;stroke-linecap:round;stroke-linejoin:round;stroke-width:1.5px;}.cls-2{opacity:0.4;isolation:isolate;}</style></defs><path class="cls-1" d="M2.5,12c0,1.23-.06,2.91.7,3.53s1.21.44,2.51.53,4,3.91,6.14,2.7C12.94,17.91,13,16.12,13,12s-.08-5.91-1.17-6.76C9.74,4,7,7.84,5.71,7.94s-1.8-.06-2.51.53S2.5,10.77,2.5,12Z" transform="translate(-1.75 -4.25)"/><path class="cls-2" d="M19.58,5.9a10.67,10.67,0,0,1,0,12.2" transform="translate(-1.75 -4.25)"/><path class="cls-2" d="M17.08,8.31a7.42,7.42,0,0,1,0,7.38" transform="translate(-1.75 -4.25)"/></svg>